<?xml version="1.0" encoding="UTF-8" standalone="no"?>
<!-- Created with Inkscape (http://www.inkscape.org/) -->

<svg
   version="1.1"
   id="svg2"
   width="1022"
   height="761"
   viewBox="0 0 1022 761"
   sodipodi:docname="egh logotipo.svg"
   inkscape:version="1.2.2 (732a01da63, 2022-12-09)"
   xmlns:inkscape="http://www.inkscape.org/namespaces/inkscape"
   xmlns:sodipodi="http://sodipodi.sourceforge.net/DTD/sodipodi-0.dtd"
   xmlns="http://www.w3.org/2000/svg"
   xmlns:svg="http://www.w3.org/2000/svg">
  <defs
     id="defs6" />
  <sodipodi:namedview
     id="namedview4"
     pagecolor="#ffffff"
     bordercolor="#000000"
     borderopacity="0.25"
     inkscape:showpageshadow="2"
     inkscape:pageopacity="0.0"
     inkscape:pagecheckerboard="0"
     inkscape:deskcolor="#d1d1d1"
     showgrid="false"
     inkscape:zoom="0.54467806"
     inkscape:cx="111.99276"
     inkscape:cy="497.54162"
     inkscape:window-width="1920"
     inkscape:window-height="1009"
     inkscape:window-x="1358"
     inkscape:window-y="-8"
     inkscape:window-maximized="1"
     inkscape:current-layer="g294" />
  <g
     inkscape:groupmode="layer"
     inkscape:label="Image"
     id="g8">
    <g
       id="g294"
       style="fill:none;stroke:#967a35;stroke-opacity:1;fill-opacity:1;opacity:1">
      <path
         style="fill:#967a35;fill-opacity:1"
         d="m 314.88173,679.00167 c -27.08747,-4.41896 -54.24502,-18.82913 -75.27358,-39.94119 -25.25442,-25.35471 -39.61421,-52.78747 -46.62316,-89.06832 -0.84351,-4.36631 -1.3423,-13.96046 -1.32573,-25.5 0.0223,-15.49242 0.39587,-20.16779 2.29813,-28.75881 5.9794,-27.00418 20.02632,-50.78885 39.74744,-67.30159 l 7.44994,-6.23793 -12.34418,-6.13248 c -15.25475,-7.57842 -23.97211,-13.96472 -35.27557,-25.84272 -21.65165,-22.75218 -32.33317,-47.64291 -38.42992,-89.5517 -6.3282,-43.49978 -14.6784,-66.19793 -39.97929,-108.67477 -12.23722,-20.54468 -18.515735,-33.0067 -22.167715,-44 -1.95564,-5.88694 -2.3254,-9.0671 -2.3254,-20 0,-12.54517 0.11172,-13.23584 3.19313,-19.74075 5.99046,-12.645944 18.536955,-21.677134 35.306865,-25.414504 9.00049,-2.00587 34.05378,-2.24694 47,-0.45226 51.94527,7.20097 105.68984,28.183664 159,62.075994 54.09605,34.39197 91.41816,68.64058 128.83868,118.22876 6.9301,9.18348 12.75738,16.54003 12.94952,16.34789 0.19215,-0.19214 -0.1316,-2.95105 -0.71942,-6.1309 -0.58783,-3.17985 -1.06878,-7.19223 -1.06878,-8.91639 0,-5.49737 2.91955,-13.21647 6.90651,-18.26035 l 3.86783,-4.89317 -2.7569,-7.92216 c -10.90739,-31.34315 -28.57209,-61.16913 -48.99393,-82.72385 -8.01149,-8.45592 -21.6502,-19.56672 -28.63766,-23.32971 -3.32369,-1.78993 -3.33888,-1.78778 -6.10891,0.86545 -13.12385,12.5705 -34.0134,2.86413 -32.01391,-14.87531 0.99471,-8.825 9.39343,-16.358744 18.23697,-16.358744 8.0255,0 16.24874,6.284414 18.20648,13.913844 0.70165,2.73438 2.10851,4.16324 7.06864,7.17915 32.59623,19.81949 62.96114,60.11809 80.55422,106.90701 4.05762,10.79128 4.47345,11.46994 6.74738,11.01221 3.11689,-0.62741 12.57756,-0.62672 16.33603,0.001 2.53764,0.42394 3.03537,0.10026 3.86489,-2.51339 2.56869,-8.09341 9.60264,-24.36622 15.77705,-36.49967 16.95875,-33.32596 38.83989,-59.46897 63.623,-76.01509 8.72547,-5.82544 10.98405,-7.8318 11.65707,-10.3553 1.21394,-4.55167 5.21318,-9.35867 9.68333,-11.639174 12.91391,-6.58818 28.7089,5.007184 26.53824,19.482164 -1.98445,13.23325 -18.78345,20.13281 -29.09766,11.95078 -2.02709,-1.60804 -4.27665,-3.35065 -4.99902,-3.87247 -1.85584,-1.34059 -16.51586,8.60818 -26.1023,17.71387 -9.12787,8.67012 -20.46846,22.01767 -27.16543,31.97294 -10.63091,15.8032 -22.56167,40.07527 -29.31599,59.64079 l -1.85686,5.37884 2.98432,3.39897 c 5.44327,6.19953 7.32482,11.10808 7.41473,19.34335 0.045,4.125 -0.26847,9.3 -0.69668,11.5 l -0.77855,4 2.77855,-3.06403 c 1.52821,-1.68522 8.24764,-10.23522 14.93208,-19 48.92374,-64.14972 119.48298,-118.14833 196.95153,-150.72576 39.18566,-16.478524 76.25477,-25.005424 108.89495,-25.048764 18.5764,-0.0247 27.04728,1.477 38.1948,6.77093 21.80775,10.35645 29.58748,30.887444 22.186,58.549654 -2.86641,10.71288 -7.83989,20.72624 -21.86314,44.01815 -25.59224,42.50743 -33.36575,63.55789 -40.06685,108.5 -4.31941,28.96883 -8.65029,44.12239 -17.65868,61.78694 -9.42195,18.47549 -22.9392,33.99759 -39.69153,45.57846 -6.7884,4.69282 -19.83195,11.74104 -26.34031,14.23327 l -2.76029,1.05699 4,3.16503 c 17.36131,13.73729 32.40514,34.95014 39.43106,55.60055 11.95224,35.12974 8.14646,79.01329 -9.99217,115.21728 -18.51155,36.94834 -49.27087,65.0595 -84.93889,77.62626 -16.02763,5.64695 -22.76051,6.69882 -43,6.71784 -20.83884,0.0196 -26.66412,-0.83871 -44.02788,-6.48701 -34.85604,-11.3384 -63.09651,-34.53184 -83.58681,-68.6485 -3.4262,-5.70467 -7.00065,-12.39149 -7.94324,-14.85962 -0.94258,-2.46812 -1.99663,-4.48749 -2.34232,-4.48749 -0.3457,0 -1.65291,5.0121 -2.90492,11.138 -6.44452,31.53205 -18.79027,46.27929 -35.07261,41.89491 -11.74342,-3.16217 -20.70408,-20.42643 -25.5793,-49.28291 -0.34845,-2.0625 -0.95066,-3.72134 -1.33823,-3.6863 -0.38758,0.035 -2.59686,3.97253 -4.90951,8.75 -20.28773,41.91038 -58.88376,73.04997 -103.29518,83.33938 -11.42544,2.64709 -38.88462,3.37384 -51.25096,1.35643 z m 37.34196,-2.58742 c 31.89239,-4.08813 60.60345,-18.40114 83.94448,-41.84793 15.08206,-15.1504 27.05844,-33.09396 35.00752,-52.44988 4.33289,-10.55051 5.957,-12.80083 5.957,-8.25381 0,9.06247 7.09885,38.95615 11.14966,46.95188 6.53855,12.9062 15.79461,17.64511 25.48389,13.04725 9.49582,-4.50606 17.77814,-24.40522 21.38077,-51.3696 0.62461,-4.675 1.35446,-9.17109 1.62188,-9.99131 0.27546,-0.84485 1.9472,1.86849 3.85652,6.25938 5.54223,12.74548 12.11319,25.23926 17.33487,32.95987 14.47719,21.40552 35.40739,39.88134 58.01228,51.20945 16.89852,8.46845 42.28356,14.56261 60.66013,14.56261 37.57872,0 76.44637,-18.74205 102.35668,-49.35656 18.54894,-21.91663 29.75072,-44.28758 36.25937,-72.41313 2.93184,-12.66927 3.70314,-41.31032 1.45935,-54.19121 -3.00904,-17.27401 -9.5271,-33.66225 -19.16711,-48.19153 -5.81796,-8.76874 -22.18872,-25.53981 -28.17678,-28.86578 -2.34767,-1.30397 -4.11713,-2.82494 -3.93213,-3.37994 0.185,-0.55499 3.90582,-2.414 8.26849,-4.13112 15.71971,-6.18719 27.49226,-13.68566 39.50485,-25.16242 23.34476,-22.30345 34.53717,-47.37008 41.43951,-92.80831 7.17394,-47.22627 15.57546,-69.11133 44.91542,-117 16.76654,-27.36633 22.68009,-46.91875 19.18166,-63.42171 -2.87473,-13.56076 -9.91249,-22.167244 -22.96715,-28.086504 -10.4747,-4.74945 -19.11967,-6.24149 -36.14216,-6.23778 -62.36118,0.0136 -144.3131,33.450534 -216.56093,88.358344 -34.38027,26.12875 -64.38301,56.36648 -90.67742,91.38765 -12.64406,16.84045 -15.04363,19.5 -17.59378,19.5 -1.83929,0 -1.90825,-0.43938 -1.13796,-7.25 1.86552,-16.49431 0.36055,-23.52165 -6.46469,-30.18631 l -3.91819,-3.82602 2.81461,-7.61883 c 15.01611,-40.64688 33.79817,-70.87834 57.98665,-93.33485 8.40216,-7.80054 25.05731,-19.78399 27.49669,-19.78399 0.72875,0 2.0762,1.14648 2.99434,2.54774 2.52261,3.84998 7.4953,6.44429 12.36034,6.44852 14.57091,0.0127 21.52009,-17.8171 10.48835,-26.91039 -9.47934,-7.813674 -23.43591,-2.77194 -25.69744,9.28305 -0.46198,2.46258 -1.59849,3.6678 -5.31096,5.63205 -32.23194,17.05382 -66.50524,62.70869 -83.70277,111.49903 -3.0645,8.69417 -3.27263,8.994 -6.12457,8.8235 -1.62375,-0.0971 -5.20227,-0.30763 -7.95227,-0.4679 -2.75,-0.16027 -7.31538,0.0834 -10.1453,0.54144 l -5.1453,0.83284 -0.68939,-3.13877 c -0.37917,-1.72633 -2.40419,-7.51556 -4.50005,-12.86495 -11.75973,-30.01506 -27.33135,-55.67205 -46.81949,-77.14339 -8.50812,-9.37394 -25.72561,-23.48503 -34.10312,-27.9502 -5.24471,-2.7954 -5.90101,-3.50328 -6.45395,-6.96115 -1.84405,-11.53207 -17.18491,-15.865204 -25.77094,-7.27917 -6.48252,6.48251 -6.25129,15.44053 0.5692,22.0512 2.88025,2.79166 4.43739,3.4649 8.86268,3.83188 6.27991,0.52078 10.50306,-1.24324 13.86599,-5.79184 1.21318,-1.64092 2.62248,-2.98349 3.13178,-2.98349 0.50929,0 5.48717,2.97432 11.06194,6.60959 23.24048,15.15497 46.77081,44.52816 62.9428,78.57223 4.59638,9.67598 13.69315,32.87656 13.69315,34.92331 0,0.64416 -1.77737,3.09943 -3.94971,5.45614 -6.04825,6.56158 -7.61754,13.14707 -5.97818,25.08739 1.00756,7.33868 1.02527,9.65396 0.081,10.59821 -1.99073,1.99073 -3.95225,0.0449 -15.94207,-15.81452 -29.59004,-39.14001 -56.28,-66.31046 -91.21104,-92.8531 -26.24343,-19.94129 -49.41938,-34.63801 -77.5,-49.14562 -51.38016,-26.545124 -101.15372,-40.758214 -142.5,-40.691624 -17.93497,0.0289 -25.62976,1.47841 -36.70279,6.91394 -8.56328,4.20353 -15.26604,10.909404 -19.117145,19.125984 -2.45535,5.23863 -2.67506,6.72422 -2.62043,17.71807 0.0515,10.37028 0.4412,13.15438 2.86922,20.5 3.739435,11.31308 9.101915,21.77809 22.546465,44 22.00702,36.37445 32.22331,62.78272 37.52537,97 7.31929,47.23565 13.41402,65.24485 29.33783,86.68972 15.16319,20.42055 35.69597,35.25744 60.41148,43.65305 0.9625,0.32695 1.72178,0.94608 1.68729,1.37585 -0.0345,0.42976 -3.48029,3.25638 -7.65733,6.28138 -13.70981,9.9286 -28.86324,29.83887 -36.29286,47.68563 -16.75636,40.25057 -10.39644,94.08568 15.82089,133.91991 12.04745,18.30472 22.4731,29.58704 38.19201,41.33026 27.85293,20.80826 61.65575,30.144 94.091,25.98629 z m 313.23512,-7.9962 c -30.19455,-2.75634 -59.25563,-16.76757 -81.82612,-39.45085 -21.05881,-21.16405 -33.96369,-44.5625 -44.0738,-79.91228 -3.24188,-11.33515 -4.38355,-13.51209 -7.10477,-13.54745 -3.51282,-0.0456 -4.04127,2.61561 -4.60078,23.16928 -0.73556,27.02113 -4.49901,47.14496 -11.09284,59.31541 -6.09226,11.24468 -13.17939,11.77051 -19.40739,1.43994 -7.05048,-11.69483 -11.13053,-32.19551 -11.82977,-59.43994 -0.56396,-21.97376 -0.72922,-23.15529 -3.3552,-23.98875 -3.73596,-1.18575 -5.6576,1.04289 -7.4981,8.69602 -12.23431,50.8723 -40.2197,89.5478 -79.33481,109.63987 -19.59271,10.06408 -36.56644,14.16157 -58.56301,14.13719 -21.52976,-0.0239 -36.86545,-3.85797 -56.78633,-14.1973 -28.67022,-14.8804 -53.52498,-43.07872 -66.36003,-75.28703 -16.99301,-42.6423 -13.06855,-89.71496 10.19783,-122.31986 6.67543,-9.35479 18.67873,-20.72663 29.21714,-27.68014 9.17435,-6.05347 11.48555,-9.06699 9.44044,-12.30917 -0.52027,-0.82479 -6.10741,-3.17204 -12.41587,-5.21612 -19.93215,-6.45846 -34.24218,-15.10161 -47.98491,-28.98253 -12.40178,-12.52649 -21.03492,-27.07736 -27.39004,-46.16502 -3.32953,-10.00026 -5.1921,-19.01471 -9.57216,-46.32716 -6.05051,-37.72877 -15.82864,-63.2024 -38.96108,-101.5 -19.3537,-32.0416 -24.45392,-44.74332 -24.4938,-61 -0.0193,-7.87857 0.38049,-10.39463 2.34254,-14.74164 4.28039,-9.48343 13.73153,-15.793164 28.29849,-18.892544 9.19791,-1.95701 38.86133,-1.36391 52.32825,1.04627 58.9725,10.554364 121.64194,39.579164 179.36119,83.069594 36.45782,27.47032 62.28819,53.61341 92.1422,93.25776 6.94181,9.21831 14.12243,17.77306 15.95692,19.01056 6.57494,4.43526 13.88942,1.8213 16.16599,-5.77721 0.96223,-3.21163 0.86147,-5.36836 -0.5576,-11.93626 -1.96148,-9.07826 -1.54453,-12.74393 2.08888,-18.36503 6.27708,-9.71101 25.90359,-10.40131 33.16763,-1.16658 3.75444,4.773 4.53957,9.84069 2.75138,17.75905 -1.96495,8.70106 -1.98248,12.05045 -0.0823,15.72499 3.07498,5.94636 10.19627,7.85057 15.72478,4.20475 1.49549,-0.98621 8.04118,-8.97074 14.54598,-17.74341 17.07813,-23.03232 29.82191,-37.78901 48.37838,-56.01983 17.63149,-17.32208 28.54261,-26.71241 47.35657,-40.75603 56.36916,-42.07658 116.58385,-70.01837 174.28394,-80.874044 9.64828,-1.81522 15.42236,-2.21273 32.71606,-2.25232 20.52427,-0.047 21.18007,0.0156 28.94875,2.76157 17.11657,6.050214 23.55125,14.968654 23.55125,32.641954 0,13.26778 -5.66724,28.8311 -17.49639,48.0484 -14.35182,23.31556 -17.22147,28.35975 -24.07792,42.32344 -11.51886,23.45903 -18.22119,46.43089 -22.95489,78.67656 -6.02042,41.01073 -15.39176,63.37893 -35.27019,84.18545 -13.5805,14.21455 -28.99259,23.58494 -49.0312,29.81046 -10.46172,3.25021 -13.94897,5.80901 -12.62365,9.26273 0.32511,0.84725 4.8672,4.32523 10.09352,7.72886 33.65656,21.91875 51.69758,58.18044 50.00727,100.5125 -0.8951,22.41693 -5.95879,42.37488 -15.73052,62 -14.51301,29.14733 -41.84016,55.93296 -69.01735,67.64969 -19.03278,8.20548 -39.67338,11.59272 -59.57256,9.7762 z m -310.55676,-4.48886 c 45.80311,-6.8011 84.41736,-38.65166 104.98066,-86.59219 3.6163,-8.4309 8.63905,-23.52411 12.19718,-36.65215 1.5332,-5.65687 4.16842,-8.19269 8.51384,-8.19269 6.51644,0 7.14025,1.72353 7.87951,21.77044 0.98604,26.739 4.75631,49.07309 10.26774,60.82347 5.14584,10.97091 9.763,11.08734 15.15055,0.38205 6.46763,-12.85147 10.24116,-34.48234 10.24116,-58.70507 0,-20.98748 1.20864,-24.27089 8.93426,-24.27089 3.95298,0 6.68583,2.79002 8.02928,8.19725 2.6779,10.77829 9.67985,31.26161 14.03292,41.05157 20.1302,45.27232 61.31148,77.11264 106.97731,82.71214 47.22532,5.79071 91.46536,-16.58528 120.52714,-60.96096 10.98283,-16.77016 18.14711,-35.09638 22.04573,-56.393 2.16656,-11.83502 2.17403,-33.40694 0.0156,-44.92595 -5.7449,-30.65857 -23.39783,-55.9627 -51.34359,-73.59714 -5.86871,-3.7033 -7.21861,-5.556 -7.21861,-9.90738 0,-4.68806 2.73892,-6.64918 14.70567,-10.52953 14.66208,-4.75434 20.32186,-7.41318 30.97565,-14.55171 19.58763,-13.1246 34.9326,-33.85662 42.62963,-57.59529 3.87477,-11.95031 5.28213,-18.29634 8.20549,-37 7.82989,-50.0956 15.15297,-70.25875 41.04066,-113 15.21706,-25.12377 19.73126,-34.22061 22.56365,-45.46936 3.91275,-15.53938 0.57221,-29.54494 -8.62075,-36.14347 -22.09848,-15.861844 -80.47187,-9.450814 -141.5,15.54067 -14.59091,5.97508 -43.65853,20.88156 -60.5,31.02564 -13.73666,8.27398 -35.88814,23.3916 -48.62415,33.18432 -32.14259,24.71444 -64.79048,58.36715 -89.11932,91.8622 -4.79385,6.6 -9.29505,12.675 -10.00266,13.5 -6.96525,8.12076 -17.6055,8.64288 -23.76831,1.16631 -3.89565,-4.72609 -4.5322,-9.57111 -2.42937,-18.49084 1.96459,-8.33334 1.48063,-13.08765 -1.75037,-17.1952 -5.78642,-7.35625 -20.82522,-7.35625 -26.61164,0 -3.11164,3.95581 -3.60305,8.44701 -1.92219,17.56774 2.30669,12.51663 0.12191,18.56317 -8.0066,22.15879 -3.90328,1.72661 -5.11809,1.8543 -8.37059,0.87983 -6.45289,-1.93332 -7.38251,-2.93952 -26.87304,-29.08663 C 408.34958,213.09275 349.94253,165.51133 283.25601,132.1573 239.33918,110.19179 195.66112,97.459226 158.63269,95.828436 c -21.88376,-0.96379 -39.4089,3.39296 -46.87043,11.651984 -5.5,6.08784 -6.98531,11.40074 -6.36205,22.75672 0.86933,15.83933 4.27748,23.88652 24.03692,56.75502 14.66929,24.40137 22.41851,40.4226 28.82055,59.58538 5.4334,16.26342 7.58976,25.74397 11.35311,49.91462 4.23292,27.18649 7.87569,40.61451 14.78481,54.5 14.17564,28.48926 35.72361,46.79918 67.16128,57.06883 11.93091,3.89744 15.57581,6.53343 15.57581,11.26443 0,3.77336 -2.15829,6.48767 -7.73329,9.72554 -12.25415,7.11701 -26.25371,20.1679 -33.72664,31.4412 -13.14233,19.82587 -18.87253,39.45817 -18.82604,64.5 0.0581,31.26565 10.35869,61.35035 29.81837,87.08945 14.42741,19.08297 28.36364,30.7095 48.9676,40.85202 23.00923,11.32654 44.29023,14.70461 69.26936,10.99556 z m -30.42079,-23.49244 c -32.17429,-4.19371 -60.73118,-23.13803 -77.54819,-51.44459 -16.13565,-27.1597 -19.78947,-67.03649 -9.16278,-100 9.11153,-28.26354 29.43051,-56.31617 53.38444,-73.70319 3.25581,-2.36325 5.92308,-4.74681 5.92725,-5.29681 0.004,-0.55 -2.53616,-2.8 -5.64518,-5 -3.10902,-2.2 -9.60532,-7.93067 -14.43622,-12.73481 -5.51127,-5.48075 -9.31836,-8.52956 -10.21927,-8.18385 -0.78969,0.30304 -4.52119,-1.01264 -8.29221,-2.92372 -26.91991,-13.64247 -50.57508,-41.45178 -60.61704,-71.26214 -5.051,-14.99431 -6.12417,-21.65941 -6.10165,-37.89548 0.0288,-20.77343 4.05083,-35.43913 13.89057,-50.64981 6.61821,-10.23071 15.13846,-18.1296 24.37124,-22.59392 6.63576,-3.20859 8.55243,-3.68021 15.10047,-3.71566 6.44879,-0.0349 8.16498,0.35028 12.24443,2.74828 7.06648,4.15384 10.30907,12.47393 7.81119,20.04257 -1.53946,4.66462 -7.87918,10.27467 -13.24332,11.71908 -6.41259,1.72673 -10.81608,4.24876 -16.79467,9.61889 -25.67948,23.06599 -25.20795,70.06472 1.0766,107.30791 5.06721,7.17985 21.80758,25.45418 22.59563,24.66613 0.20959,-0.20958 -1.18631,-3.0276 -3.10199,-6.26227 -6.58562,-11.11995 -11.51427,-25.62733 -13.54901,-39.8812 -6.17321,-43.24503 16.82729,-84.64503 56.02396,-100.84094 12.8226,-5.29825 22.22014,-7.02019 37.93718,-6.95135 17.06571,0.0747 28.23938,2.76976 43.19735,10.41891 8.63903,4.41779 11.77375,6.7336 19.41307,14.34163 7.5161,7.48532 9.839,10.57834 13.27369,17.6744 11.36473,23.4795 8.86699,49.24991 -6.23526,64.3321 -13.57207,13.55404 -34.83109,16.26133 -49.70385,6.32968 -3.29714,-2.20174 -7.0951,-5.44573 -8.4399,-7.20885 -6.16696,-8.08531 -9.2999,-20.95487 -5.99122,-24.61092 2.31936,-2.56286 2.93371,-2.50779 7.05019,0.632 3.06431,2.33727 4.12099,2.57271 9.89609,2.20498 5.33097,-0.33945 7.12999,-0.94037 10.25265,-3.42463 2.08295,-1.65712 4.82994,-5.01186 6.10442,-7.45498 2.05394,-3.93733 2.27436,-5.52141 1.93998,-13.94203 -0.31473,-7.9256 -0.85298,-10.49075 -3.2478,-15.47819 -11.93373,-24.85308 -46.95238,-29.61568 -67.69071,-9.20606 -6.41818,6.31646 -12.73244,17.85844 -15.99676,29.24084 -1.96596,6.85515 -2.27384,10.20393 -2.2473,24.44341 0.0427,22.90547 3.69982,38.68896 13.43897,58 4.2192,8.36594 14.40772,23.11336 19.02333,27.53539 2.84003,2.72092 3.19458,2.80928 6.23713,1.55444 20.32879,-8.3842 27.86601,-10.05243 39.08485,-8.65072 7.30554,0.91276 14.23534,5.46573 17.59613,11.56089 3.61823,6.56204 3.54331,16.76753 -0.1696,23.10313 -2.97093,5.06951 -8.10704,9.0477 -14.66118,11.35587 -8.57359,3.01936 -25.92903,1.42656 -39.53801,-3.62861 l -5.91375,-2.19671 -4.41131,4.93316 c -5.66166,6.33142 -15.54826,21.09144 -19.71501,29.43316 -15.44611,30.92275 -18.64501,67.01643 -8.59745,97.00638 8.27068,24.68635 20.49519,40.26733 38.81038,49.46653 6.71606,3.37328 13.10128,4.618 23.68967,4.618 15.32029,0 26.06055,-4.5921 36.46132,-15.58938 16.17747,-17.10529 18.87778,-50.66175 5.28731,-65.70477 -5.80795,-6.42871 -10.30693,-8.27221 -20.19742,-8.27612 -9.49812,-0.004 -12.27915,1.04757 -18.63979,7.04643 -5.19245,4.89711 -6.93523,5.73074 -9.31646,4.45635 -5.12859,-2.74474 -5.14183,-18.99219 -0.0241,-29.56404 4.57834,-9.45761 15.13378,-18.13689 26.37615,-21.68798 4.77489,-1.50823 8.28186,-1.8527 16.10418,-1.58184 9.11204,0.31552 10.69893,0.6784 17.87114,4.0866 15.22171,7.23327 26.99299,22.44829 32.28013,41.72384 2.68151,9.77611 2.42155,33.67558 -0.48404,44.5 -12.74399,47.47613 -61.74201,78.23245 -113.81866,71.44459 z m 41.00561,-5.83133 c 9.83028,-2.60924 24.89505,-9.68838 33.14443,-15.57502 12.71437,-9.07278 24.48317,-22.86391 30.52018,-35.76469 5.5082,-11.77076 7.142,-19.05094 7.70423,-34.32997 0.60625,-16.47557 -1.17484,-25.75303 -7.38043,-38.44358 -4.56116,-9.32768 -15.14217,-20.24826 -23.50572,-24.26008 -20.79644,-9.97564 -45.67506,-2.653 -55.85191,16.43915 -2.84507,5.33745 -3.43668,7.60403 -3.80235,14.56758 -0.59624,11.35395 0.64417,12.81727 6.2301,7.34971 6.14621,-6.01596 12.55307,-8.55499 21.58729,-8.55499 8.95291,0 14.6292,2.23211 21.29024,8.37204 13.04984,12.02893 15.20213,38.64426 4.81944,59.59741 -13.33792,26.91705 -44.98333,36.94411 -73.9874,23.4434 -27.02427,-12.57915 -45.43774,-48.47455 -45.37488,-88.45422 0.0539,-34.28979 12.59517,-67.35035 35.07217,-92.45528 l 6.08898,-6.80088 8.98941,3.37656 c 12.17622,4.57357 18.06547,5.69914 27.01955,5.16406 9.11185,-0.54451 14.35148,-2.94423 19.46026,-8.91269 8.24497,-9.6324 5.24371,-24.47219 -6.06179,-29.97255 -7.70833,-3.75027 -15.95441,-3.7591 -27.08798,-0.029 -5.04516,1.69029 -11.99033,4.49542 -15.43371,6.23363 l -6.26069,3.16039 -6.42661,-6.88212 c -20.96937,-22.45566 -32.32917,-52.91773 -32.39973,-86.88212 -0.023,-11.07649 0.42852,-15.8794 2.1623,-23 6.18824,-25.41513 21.74427,-42.09457 42.52327,-45.59417 13.98538,-2.35541 27.50924,1.03222 37.6967,9.44277 9.74481,8.0451 14.95425,19.46256 14.86658,32.5829 -0.10382,15.53566 -8.64333,25.76235 -22.40184,26.82783 -3.95372,0.30618 -6.11749,-0.1544 -9.93707,-2.11519 l -4.88281,-2.50659 0.56598,5.48378 c 0.34504,3.34319 1.70409,7.51261 3.48159,10.68123 10.48523,18.69124 38.80284,21.20788 55.11274,4.89797 8.62263,-8.62262 12.07401,-17.96087 12.09343,-32.72063 0.0231,-17.59483 -6.01732,-31.78946 -18.92827,-44.4799 -17.42303,-17.12546 -38.7178,-24.87316 -65.05986,-23.6708 -15.5496,0.70975 -22.77989,2.45375 -35.5,8.56284 -23.29706,11.1889 -38.57645,29.08422 -47.0523,55.10796 -2.36704,7.26764 -2.83036,10.60227 -3.19563,23 -0.50113,17.00899 1.36328,28.33277 6.9597,42.27083 7.53521,18.76667 24.37776,39.66207 42.96696,53.30617 4.94105,3.62663 8.78578,6.79182 8.54384,7.03376 -0.24194,0.24194 -3.16651,2.34099 -6.49905,4.66456 -24.86285,17.3353 -45.7283,45.07236 -55.18187,73.35493 -21.29207,63.70015 7.83446,127.29364 66.45835,145.10203 10.92454,3.31859 18.8867,4.21794 34,3.84041 11.06409,-0.27638 17.06089,-0.92172 22.85418,-2.45943 z M 350.63269,413.47606 c -5.15722,-1.02754 -12.5,-3.96875 -12.5,-5.00699 0,-1.44849 9.36592,-6.09807 15.4245,-7.65727 9.5059,-2.44638 16.5755,-0.14276 16.5755,5.40109 0,7.05376 -7.16205,9.72141 -19.5,7.26317 z m 12.17857,-2.97025 c 0.64822,-0.008 1.88482,-0.7199 2.74802,-1.5831 1.22904,-1.22904 1.33033,-2.01624 0.46698,-3.62941 -0.96996,-1.81239 -1.78114,-1.99844 -6.74918,-1.54795 -3.10569,0.28161 -7.44619,1.26749 -9.64555,2.19083 -3.43755,1.44316 -3.75232,1.81802 -2.24253,2.67062 2.4654,1.39223 9.85396,2.78678 12.24369,2.31092 1.1,-0.21904 2.53036,-0.4044 3.17857,-0.41191 z M 249.98163,368.4981 c -17.61063,-19.7346 -23.21241,-28.02068 -29.86325,-44.17333 -13.25858,-32.20064 -9.42692,-65.40786 9.82401,-85.1402 6.22869,-6.38446 12.47116,-10.42748 19.05559,-12.34163 3.037,-0.88287 6.93505,-2.97375 8.89835,-4.77298 2.89018,-2.64865 3.56753,-4.055 3.92047,-8.13983 0.8668,-10.03232 -5.01021,-15.43797 -16.78415,-15.43797 -21.74322,0 -43.93522,26.75694 -48.98672,59.0634 -1.75185,11.20379 -0.62358,30.30514 2.50662,42.4366 5.32367,20.63254 18.97349,43.17695 35.79017,59.11203 7.07083,6.70014 18.26515,15.22546 20.13891,15.3373 0.46692,0.0279 -1.55808,-2.64666 -4.5,-5.94339 z M 599.5394,603.48113 c -6.20197,-1.25935 -10.38659,-3.28939 -16.05541,-7.78877 -5.79372,-4.59852 -15.05086,-17.79886 -18.33255,-26.14156 -8.325,-21.16375 -8.9342,-47.03179 -1.69337,-71.90339 l 2.4294,-8.34475 -5.12739,4.93329 c -11.4847,11.04995 -21.74947,17.33657 -35.62739,21.81987 -7.59349,2.4531 -10.0464,2.75452 -23,2.82638 -17.03016,0.0945 -27.1858,-2.01953 -40.67441,-8.46682 -24.75587,-11.83281 -46.14202,-38.97525 -53.33407,-67.68947 -10.14257,-40.4941 0.67873,-83.28048 27.89412,-110.2907 12.92436,-12.82693 27.37702,-21.06278 45.93893,-26.17831 10.52766,-2.90135 33.3601,-3.07902 43.67543,-0.33986 21.70237,5.76291 38.59932,18.11398 45.90526,33.55512 2.56089,5.41245 3.14558,8.01847 3.44199,15.34133 0.33445,8.26237 0.15463,9.23254 -2.83769,15.31081 -5.127,10.41442 -14.3862,15.33126 -26.5141,14.07955 -11.15853,-1.15166 -21.49546,-10.12 -21.49546,-18.64949 0,-2.44554 0.76367,-3.5192 3.92071,-5.51214 4.32312,-2.72907 5.41002,-5.00769 5.32264,-11.15859 -0.20811,-14.64985 -18.75421,-26.23564 -36.05698,-22.52486 -8.82522,1.89267 -14.31229,5.11885 -22.21929,13.06406 -5.96805,5.9969 -8.50653,9.54284 -12.21962,17.06933 -21.21398,43.00106 -10.64753,113.20689 20.13187,133.76059 13.46846,8.99389 30.55167,8.27089 40.22352,-1.70234 5.95585,-6.14145 7.96916,-11.91908 8.63029,-24.76651 0.61278,-11.908 -0.5459,-17.7058 -4.76359,-23.83599 -4.33807,-6.30517 -9.74047,-8.53441 -22.61556,-9.33205 -9.44933,-0.58541 -10.75416,-0.89967 -12.45458,-2.99959 -2.71457,-3.35236 -2.46247,-8.65196 0.55514,-11.66956 l 2.45454,-2.45455 h 45.1112 c 51.82973,0 50.92975,-0.14441 50.9644,8.17742 0.0161,3.86618 -1.36064,5.43718 -7.93399,9.0535 -5.22638,2.87528 -7.20978,8.9495 -7.81787,23.94242 -0.28612,7.05466 -0.2723,12.82666 0.0307,12.82666 0.30303,0 3.14415,-3.85735 6.3136,-8.57189 21.70457,-32.28538 51.41782,-52.37547 101.97081,-68.94578 37.3556,-12.24445 57.83643,-23.75245 77.45203,-43.51959 27.0264,-27.23521 42.23999,-61.35856 43.70316,-98.02412 0.67089,-16.812 -0.68331,-25.63134 -5.37596,-35.01141 -14.46436,-28.91261 -38.82241,-6.93665 -52.17523,47.07279 -6.15012,24.87598 -11.38565,66.37981 -12.42536,98.5 l -0.22658,7 -12.25717,6.31248 c -6.74145,3.47187 -17.20395,8.0771 -23.25,10.23384 l -10.99283,3.92136 v -14.40429 c 0,-30.89764 5.06957,-82.13405 10.57094,-106.83688 7.70667,-34.6053 17.36738,-55.09488 33.34713,-70.72651 12.44726,-12.1761 23.78004,-17.73618 38.19202,-18.73774 13.96407,-0.97044 25.97722,3.74426 35.35802,13.87664 26.32309,28.43207 22.42479,98.6975 -8.36079,150.70059 -8.21935,13.88414 -25.99847,34.18157 -39.10732,44.64663 -19.87055,15.86307 -34.18991,22.88293 -74.5,36.52255 -32.31604,10.93468 -48.36639,18.82366 -64.40616,31.65652 -14.56966,11.65668 -24.43386,23.93809 -33.50477,41.71507 -7.11238,13.93869 -9.034,22.45749 -9.04997,40.11974 -0.0161,17.7625 1.61495,24.85405 6.94127,30.18037 3.9572,3.9572 4.86797,4.0622 8.00707,0.9231 5.53154,-5.53154 8.26266,-24.56771 9.17147,-63.92587 l 0.66553,-28.82239 6.89188,-7.37977 c 7.8785,-8.43622 18.85579,-17.00145 29.73474,-23.20109 4.12528,-2.35089 7.77833,-4.27435 8.11789,-4.27435 1.16435,0 1.93495,66.49325 0.99088,85.5 -1.92915,38.83908 -6.70611,57.79304 -17.46422,69.29433 -7.84829,8.39046 -19.57381,12.3501 -30.1889,10.19464 z m 15.31463,-4.49886 c 6.95175,-2.06444 14.37964,-8.90724 18.24225,-16.80529 3.69885,-7.56322 6.56057,-18.55606 8.63051,-33.15275 1.83326,-12.92772 3.02144,-78.82798 1.71835,-95.30506 l -0.81245,-10.27299 -9.21423,5.9631 c -5.06782,3.2797 -13.50588,10.15255 -18.75123,15.27299 l -9.53701,9.30989 -0.0194,7.5 c -0.0107,4.125 -0.45757,18.00002 -0.99308,30.83339 -1.84369,44.18278 -6.01566,59.16661 -16.47389,59.16661 -9.14724,0 -14.84301,-14.01026 -14.83881,-36.5 0.003,-16.55538 2.21057,-25.66799 10.17424,-42 10.088,-20.68861 24.34439,-36.86159 44.06744,-49.99176 13.80593,-9.19098 28.15392,-15.63607 54.66044,-24.55336 33.8685,-11.39401 46.28996,-16.79122 60.42553,-26.25529 26.26697,-17.58631 46.96542,-41.64322 60.58223,-70.4121 11.08375,-23.41717 16.36607,-47.35011 16.39626,-74.28749 0.0312,-27.87829 -5.94143,-46.20859 -19.05237,-58.47234 -12.34758,-11.54971 -30.74375,-13.29371 -48.42612,-4.59091 -32.16845,15.83247 -49.5841,56.64659 -56.94189,133.44508 -1.9761,20.62596 -4.02525,61.48436 -3.12857,62.38105 1.13883,1.13882 16.25049,-4.4273 28.32046,-10.43136 10.71789,-5.33149 11.25069,-5.74364 11.26464,-8.71385 0.0283,-6.02504 2.95343,-45.21187 4.00233,-53.61767 4.59092,-36.79139 12.32755,-66.77071 22.25977,-86.25629 8.91238,-17.4848 17.59395,-24.58712 28.74458,-23.51568 7.01617,0.67416 11.50402,4.50509 16.22826,13.85279 8.05424,15.93668 8.8006,38.42983 2.16021,65.10219 -4.49361,18.04943 -10.35021,31.70747 -19.8608,46.31699 -21.75367,33.41647 -50.05169,54.078 -93.05837,67.94571 -43.19401,13.92811 -66.86499,26.59158 -87.49865,46.80987 -19.16368,18.7779 -31.59722,40.12218 -38.76312,66.54347 -2.38962,8.81077 -2.62935,11.35268 -2.61244,27.70095 0.0172,16.66298 0.21837,18.65278 2.70783,26.78832 9.48668,31.00239 28.43807,46.42596 49.3971,40.20179 z m -94.53791,-85.40915 c 20.61304,-5.27192 40.25626,-20.23909 48.52658,-36.97487 2.44604,-4.94979 2.71461,-6.72 3.26187,-21.5 0.73388,-19.81978 2.12857,-23.7101 10.04478,-28.01864 4.21015,-2.29145 4.98334,-3.1626 4.98334,-5.61468 0,-1.88332 -0.70542,-3.27993 -2.00907,-3.97763 -2.65405,-1.4204 -88.47797,-0.93805 -89.82948,0.50486 -2.17316,2.32011 -2.26107,5.40038 -0.2126,7.44885 1.71841,1.71841 3.31949,2.05115 9.86965,2.05115 4.30017,0 10.26267,0.72107 13.25,1.60238 13.54323,3.99546 20.00254,19.39761 17.00782,40.55491 -2.05792,14.53889 -7.39974,22.35453 -18.86704,27.60444 -4.82541,2.20914 -6.38133,2.42029 -15.04563,2.04178 -7.56889,-0.33065 -10.6391,-0.92425 -14.16365,-2.73841 -18.80054,-9.67702 -30.4626,-28.66776 -36.57847,-59.5651 -1.31287,-6.63264 -1.79593,-13.99776 -1.83644,-28 -0.0474,-16.36737 0.2682,-20.45487 2.27746,-29.5 5.78843,-26.05789 18.25601,-45.00902 35.05119,-53.27896 6.16893,-3.03758 7.16929,-3.22104 17.56388,-3.22104 9.29773,0 11.78027,0.34974 15.86615,2.23525 6.39162,2.94953 15.19232,11.93151 16.57709,16.91855 2.43344,8.76366 0.41152,17.11147 -4.87298,20.11886 -4.11497,2.34181 -4.04941,6.01707 0.19354,10.84952 4.38779,4.99742 9.88614,7.3339 17.25858,7.3339 25.91281,0 31.63418,-32.80325 9.32396,-53.45858 -14.29466,-13.23433 -31.27114,-19.4975 -52.84849,-19.4975 -16.75963,0 -24.8317,1.56288 -36.70311,7.1063 -23.10425,10.78865 -37.63989,24.90054 -48.81686,47.3937 -7.66631,15.42812 -10.51719,27.05959 -11.15207,45.5 -1.1785,34.22973 8.44293,60.02083 30.60384,82.03636 12.96473,12.87969 27.20699,20.87904 43.59273,24.48444 9.41179,2.07091 28.74901,1.8452 37.68343,-0.43984 z m 209.08304,86.93055 c -17.90092,-9.04919 -28.62721,-34.67771 -35.78907,-85.51151 -3.63377,-25.79192 -4.76308,-41.62926 -4.87521,-68.36954 l -0.10219,-24.36953 15.5,-5.69365 c 8.525,-3.1315 18.5689,-7.12771 22.31977,-8.88046 3.75087,-1.75275 6.96038,-3.18682 7.13224,-3.18682 0.17186,0 0.6222,11.3625 1.00076,25.25 1.29329,47.44483 4.70929,82.89081 10.00253,103.79101 5.72857,22.61907 11.23728,31.24261 17.99181,28.16504 3.38406,-1.54188 5.53207,-5.16243 7.69896,-12.97691 2.23245,-8.05091 4.42077,-10.62695 8.2179,-9.67393 4.14909,1.04136 4.97843,3.69736 4.33486,13.88264 -1.28944,20.40702 -11.28988,39.16145 -25.12905,47.12604 -4.12481,2.37386 -6.33022,2.89958 -13.5,3.21807 -8.00873,0.35577 -8.97788,0.17439 -14.80331,-2.77045 z m 27.01752,-4.24356 c 11.39585,-6.07392 19.82996,-21.39261 22.61816,-41.08082 1.05268,-7.43327 0.25526,-12.03275 -2.16706,-12.49948 -1.17935,-0.22723 -1.80939,0.72647 -2.31218,3.5 -2.21743,12.23194 -7.48394,19.31235 -14.36478,19.31235 -11.08192,0 -18.18009,-17.44522 -24.00611,-59 -3.13862,-22.38656 -4.09503,-36.04033 -4.74918,-67.7993 -0.42689,-20.72527 -0.92529,-29.15928 -1.70316,-28.82082 -10.46907,4.55528 -19.07132,8.00545 -27.84968,11.16987 l -10.75,3.87516 0.01,5.53754 c 0.005,3.04565 0.45933,15.43755 1.00912,27.53755 2.59127,57.03036 10.29718,99.42681 22.09481,121.56143 10.25047,19.23187 25.84293,25.40906 42.17056,16.70652 z M 600.84027,376.73996 c -0.40669,-45.45176 -0.76163,-55.89962 -2.09037,-61.5313 -2.06299,-8.74369 -4.08515,-12.56371 -7.29719,-13.78493 -3.05218,-1.16044 -5.56456,-0.49964 -10.30215,2.70962 -5.96352,4.03971 -12.01787,2.19499 -12.01787,-3.66176 0,-6.22191 16.34053,-27.22684 30.79236,-39.58204 18.51106,-15.82552 39.65697,-26.39739 52.80022,-26.39739 4.46007,0 5.57039,0.39173 7.28359,2.5697 2.288,2.90873 1.90216,4.77943 -2.29827,11.14279 -8.13258,12.3203 -10.57634,37.83347 -10.57732,110.42871 l -5.8e-4,42.64119 -11.75,6.6181 c -6.4625,3.63995 -15.575,9.54918 -20.25,13.13161 -4.675,3.58243 -9.69308,7.40226 -11.15128,8.48851 l -2.65128,1.97499 z m 18.82074,36.94407 c 5.91385,-4.01947 13.79704,-8.84135 17.5182,-10.7153 l 6.76576,-3.40718 0.45369,-58.78469 c 0.37562,-48.66845 0.74179,-60.53867 2.12782,-68.97685 2.02076,-12.30245 4.56254,-20.00633 8.75785,-26.54415 2.89345,-4.50907 3.01468,-5.02596 1.52747,-6.51316 -1.38262,-1.38262 -2.44976,-1.46023 -7.40562,-0.5386 -24.50418,4.55703 -57.32293,29.21068 -73.17034,54.966 -5.16408,8.3927 -3.73914,12.42081 2.79261,7.8943 8.81891,-6.11151 15.60138,-4.93724 19.79847,3.42776 4.53002,9.02855 5.37031,18.91272 6.01624,70.76849 0.56728,45.54151 0.6991,48.19682 2.33332,47 0.95265,-0.69767 6.57068,-4.55715 12.48453,-8.57662 z M 163.20377,207.74061 c -7.12652,-3.63391 -9.99784,-12.39582 -6.3078,-19.24845 2.04566,-3.7989 8.94847,-8 13.14478,-8 h 2.48427 l -3.13483,3.25 c -3.6784,3.81354 -5.2575,7.53214 -5.2575,12.38084 0,4.06413 1.23136,6.78305 4.80928,10.61916 l 2.5649,2.75 -2.43709,-0.002 c -1.3404,-8.6e-4 -3.9801,-0.78836 -5.86601,-1.75 z m 680.05673,-0.86586 c 3.78253,-4.14926 4.87219,-6.70237 4.87219,-11.41572 0,-5.01434 -2.34745,-10.30841 -5.76171,-12.99407 -2.17485,-1.71074 -2.25763,-1.97206 -0.62315,-1.96722 4.42664,0.0131 9.41525,2.265 12.30259,5.55351 2.64447,3.01188 3.08227,4.29227 3.08227,9.01443 0,4.97948 -0.3576,5.88729 -3.75288,9.52721 -2.98939,3.20478 -4.66779,4.13937 -8.25,4.59387 l -4.49712,0.57059 z M 160.13269,167.52421 c -12.99795,-2.81033 -20.99321,-12.73642 -20.96827,-26.03205 0.0258,-13.74823 8.96112,-24.17239 22.68142,-26.46067 5.21133,-0.86915 14.07948,1.51806 17.92395,4.82494 l 2.70745,2.32885 -5.61121,-0.46533 c -10.84766,-0.89957 -19.48709,6.15403 -20.50433,16.74061 -0.76218,7.93224 0.42741,11.74065 5.139,16.45225 5.13435,5.13434 11.32343,7.09604 17.86235,5.66167 l 4.26964,-0.93658 -3.28529,2.77941 c -4.88869,4.13593 -14.02743,6.44468 -20.21471,5.1069 z m 677.5,-1.91278 c -2.2,-1.01025 -4.80486,-2.74248 -5.78858,-3.8494 -1.76918,-1.99079 -1.74751,-2.00182 2,-1.01836 8.64891,2.26973 19.50875,-4.82293 22.22189,-14.51332 3.64807,-13.02963 -7.09578,-25.8269 -20.51963,-24.44144 -2.97752,0.30731 -5.41368,0.37536 -5.41368,0.15123 0,-1.17929 11.06904,-6.48575 14.64872,-7.02255 10.15344,-1.5226 21.42424,4.91476 26.43869,15.10056 2.76318,5.61282 3.09821,7.17194 2.72613,12.68663 -0.70907,10.5094 -5.98149,18.29579 -15.38017,22.7137 -5.69406,2.67652 -15.33147,2.76535 -20.93337,0.19295 z m -631.54856,-21.21 c -2.15765,-4.03161 2.34767,-9.90927 7.59561,-9.90927 2.0009,0 1.84081,0.52123 -1.04705,3.40909 -1.57214,1.57214 -2.5,3.6303 -2.5,5.54546 0,3.5948 -2.34027,4.14668 -4.04856,0.95472 z m 597.04856,-0.37447 c 0,-1.35587 -1.39662,-4.05587 -3.10359,-6 l -3.10359,-3.5348 h 2.46873 c 5.63616,0 10.04917,7.28928 6.53845,10.8 -1.85781,1.85781 -2.8,1.43207 -2.8,-1.2652 z"
         id="path6072" />
    </g>
  </g>
</svg>
