<?xml version="1.0" encoding="UTF-8" standalone="no"?>
<!-- Created with Inkscape (http://www.inkscape.org/) -->

<svg
   version="1.1"
   id="svg2"
   width="1022"
   height="761"
   viewBox="0 0 1022 761"
   sodipodi:docname="egh logotipo dorado minimalista.svg"
   inkscape:version="1.2.2 (732a01da63, 2022-12-09)"
   xml:space="preserve"
   xmlns:inkscape="http://www.inkscape.org/namespaces/inkscape"
   xmlns:sodipodi="http://sodipodi.sourceforge.net/DTD/sodipodi-0.dtd"
   xmlns="http://www.w3.org/2000/svg"
   xmlns:svg="http://www.w3.org/2000/svg"><defs
     id="defs6" /><sodipodi:namedview
     id="namedview4"
     pagecolor="#ffffff"
     bordercolor="#000000"
     borderopacity="0.25"
     inkscape:showpageshadow="2"
     inkscape:pageopacity="0.0"
     inkscape:pagecheckerboard="0"
     inkscape:deskcolor="#d1d1d1"
     showgrid="false"
     inkscape:zoom="0.19257277"
     inkscape:cx="1739.6021"
     inkscape:cy="-207.71368"
     inkscape:window-width="1920"
     inkscape:window-height="1009"
     inkscape:window-x="1358"
     inkscape:window-y="-8"
     inkscape:window-maximized="1"
     inkscape:current-layer="g8" /><g
     inkscape:groupmode="layer"
     inkscape:label="Image"
     id="g8"><path
       id="path15313"
       style="fill:#c8ab37;fill-opacity:1;fill-rule:nonzero;stroke:#967a35;stroke-width:1.29821;stroke-opacity:1"
       class="UnoptimicedTransforms"
       d="m 234.28111,145.8458 c -21.74955,0 -34.41079,5.30285 -41.8837,17.53793 -2.55282,4.17961 -2.75675,5.30342 -2.67043,14.81724 0.0825,9.09537 0.46479,11.20795 3.29024,18.14869 1.75876,4.32042 7.60233,15.12888 12.98389,24.01891 22.43154,37.0558 27.65249,50.15613 33.98912,85.28101 1.70232,9.43609 4.25861,21.34717 5.68096,26.46963 8.03096,28.92276 29.47726,52.39732 57.78956,63.25714 3.52165,1.35079 6.34007,2.93926 6.72538,3.72585 0.13859,-0.0939 0.26849,-0.19846 0.40248,-0.29677 0.23013,-0.23754 0.46182,-0.47192 0.69829,-0.70649 0.58621,-0.54684 1.21253,-1.06236 1.81316,-1.59871 -0.93279,1.1349 -3.9598,3.65422 -7.69535,6.32399 -10.70093,7.64785 -28.69984,26.50515 -36.42612,38.16413 -30.47542,45.98748 -31.55589,99.76318 -2.8113,139.96065 13.82068,19.32732 35.53027,33.56152 59.5665,39.05443 5.36018,1.22492 13.55125,1.65635 25.43248,1.34023 14.77061,-0.393 19.15878,-1.01371 27.91173,-3.94986 15.7563,-5.28539 28.40899,-13.02947 39.54129,-24.19697 17.17551,-17.22982 24.44442,-33.08219 25.65988,-55.96052 0.58707,-11.05038 -0.0306,-19.36261 -2.13916,-27.1474 10.86003,26.30138 27.0666,47.06727 44.33075,55.04724 8.66321,4.0044 27.64797,4.3196 36.52473,0.60694 14.51152,-6.06942 30.20103,-24.06277 37.67178,-43.02726 -0.22212,3.622 -0.33405,7.75405 -0.33405,13.86951 0,19.98333 1.73677,29.21138 8.03946,42.68454 5.48871,11.73314 15.85413,21.81142 24.97366,24.28313 9.42756,2.55522 21.3988,-3.08227 27.06653,-12.74754 8.38947,-14.30673 10.8402,-29.89151 11.78853,-75.00334 0.4205,-19.99469 0.6114,-42.93442 0.42461,-50.97868 l -0.34009,-14.62769 -7.37135,5.41454 c -4.05414,2.97742 -11.51555,9.69548 -16.58002,14.9283 l -9.20664,9.51374 -0.76269,26.9636 c -1.50319,53.17955 -5.47889,70.45803 -16.20773,70.45803 -5.10787,0 -9.33845,-4.30166 -11.82877,-12.02573 -3.15489,-9.78522 -3.1438,-41.37893 0.0181,-51.59328 2.72759,-8.81132 10.56991,-25.83701 15.39874,-33.42735 5.67038,-8.91312 17.2736,-21.72893 26.01205,-28.73271 15.12056,-12.11897 27.02106,-18.07664 63.8267,-31.94735 36.40081,-13.71815 52.80458,-23.91412 72.03522,-44.77531 21.32975,-23.1383 35.00942,-49.11183 42.76109,-81.18947 2.00059,-8.27871 2.83469,-13.89742 3.3305,-24.33291 4.78453,-14.59263 11.07922,-26.3722 22.88077,-45.70199 5.14609,-8.42876 10.91383,-18.56517 12.81485,-22.5255 13.54083,-28.20838 4.36899,-49.16963 -23.82257,-54.44606 -2.04257,-0.3823 -5.05456,-0.61815 -8.6291,-0.72181 -2.68088,-0.0778 -5.67724,-0.0806 -8.82026,-0.0153 -9.42904,0.1958 -20.16824,1.00828 -27.58976,2.28031 -50.88647,8.72215 -113.80921,40.24551 -161.4413,80.87739 -18.59828,15.86509 -31.90869,29.78282 -50.8388,53.16709 -6.43535,7.94961 -9.58273,11.48858 -11.59132,12.80498 -7.4798,-5.60756 -14.25247,-6.9936 -28.58588,-6.9941 -10.85601,-3.9e-4 -16.72067,0.66999 -22.90291,4.07048 -0.59492,-0.63648 -1.18227,-1.24919 -1.84334,-2.07162 -25.61594,-31.8691 -50.62557,-57.19714 -72.67717,-73.60566 C 350.97653,172.15473 285.36606,145.8458 234.28111,145.8458 Z m -4.94442,4.94738 c 2.84342,0.0299 6.3911,0.11964 10.98156,0.24699 20.80387,0.57714 26.32498,1.44145 48.04763,7.53211 50.13373,14.05667 105.83344,46.00231 146.09286,83.79145 14.21076,13.33872 23.42846,23.42711 39.24547,42.93918 2.82733,3.48784 5.54828,6.67616 7.82414,9.24571 -3.16621,2.21691 -6.61426,5.10549 -11.02986,9.10019 -20.73851,18.76167 -37.19486,57.90108 -41.15924,97.89453 -1.71992,17.3508 -0.7943,55.31328 1.70448,69.90662 1.6278,9.50656 4.03413,18.75844 7.0051,27.57627 -0.0406,-0.0862 -0.0717,-0.17019 -0.11269,-0.25656 -4.72306,-9.95236 -16.23215,-22.00467 -24.81669,-25.98714 -18.21991,-8.45244 -41.18072,-2.1395 -51.66991,14.20648 -3.53119,5.50287 -4.29707,8.109 -4.83374,16.47148 l -0.63793,9.93497 4.96455,-4.35768 c 6.88473,-6.04488 12.11788,-7.92844 22.02954,-7.92844 10.40344,0 15.72112,2.08944 22.45617,8.82448 13.14358,13.1436 14.85363,40.57916 3.83761,61.56845 -4.91731,9.36915 -15.642,19.58885 -25.31576,24.1223 -6.81049,3.19163 -8.84114,3.49992 -23.04781,3.49992 -15.34101,0 -15.73508,-0.0753 -25.83898,-4.89951 -14.45783,-6.90303 -25.71891,-18.53898 -33.76776,-34.88821 -9.68127,-19.6651 -11.65189,-28.98744 -11.61949,-54.98215 0.0246,-19.77645 0.38848,-23.41774 3.50154,-35.05095 4.67631,-17.47496 15.42387,-38.90432 26.26359,-52.36295 4.79284,-5.95081 9.46009,-11.10533 10.37182,-11.45518 0.91172,-0.34987 7.26429,1.15935 14.11685,3.35442 20.33331,6.51333 32.28408,5.27073 40.62194,-4.22557 5.71482,-6.50883 6.6715,-12.63255 3.11718,-19.94843 -2.19796,-4.52405 -4.08931,-6.32743 -8.83838,-8.42816 -8.76112,-3.87546 -18.49472,-2.77655 -34.77798,3.9288 l -12.9537,5.33605 -4.34473,-4.18727 c -20.23448,-19.49441 -33.30914,-51.51052 -34.84238,-85.32314 -0.88824,-19.58844 1.17326,-31.18879 8.01331,-45.08548 9.19984,-18.69102 23.60814,-28.86993 42.4049,-29.95806 23.98068,-1.38822 42.00816,11.11835 47.37549,32.86828 3.95341,16.02028 -1.32046,30.45995 -13.07444,35.79766 -6.56508,2.98133 -13.92117,3.14956 -19.16391,0.43845 l -3.95433,-2.04673 0.93173,4.31747 c 3.44703,15.96367 16.36934,25.34377 33.33913,24.19888 4.49361,-0.30317 10.48757,-1.66792 13.31995,-3.03276 7.02392,-3.38462 14.68242,-11.33187 17.92831,-18.60245 3.82986,-8.5786 4.56423,-25.07967 1.60185,-36.02358 -6.26869,-23.15841 -29.59144,-43.30552 -57.04095,-49.27466 -13.279,-2.88764 -35.46231,-1.99744 -46.51017,1.86675 -28.92907,10.11849 -47.971,29.27622 -58.22021,58.57206 -2.50627,7.16382 -2.96587,11.18348 -3.03467,26.61323 -0.0695,15.5882 0.3523,19.5538 2.96222,27.86538 7.51846,23.94332 21.31191,43.00328 45.31682,62.6234 2.43613,1.99114 4.58059,3.86932 6.2565,5.41837 -0.11185,-0.0405 -0.16626,-0.0719 -0.28173,-0.11296 -5.74217,-2.03955 -12.27445,-4.594 -14.51531,-5.67876 -16.62685,-8.04922 -31.54801,-23.18373 -39.79686,-40.36786 -4.56626,-9.51254 -7.02473,-18.42691 -10.69782,-38.77871 -6.73848,-37.33627 -11.37307,-49.47349 -32.0009,-83.82208 -16.07999,-26.77569 -18.86999,-33.65402 -18.83186,-46.42763 0.0392,-13.11191 5.8257,-20.47154 19.39734,-24.67179 4.98063,-1.54145 7.17032,-1.98515 15.70061,-1.89548 z m 579.59207,0.44419 6.42955,2.85853 c 13.67444,6.07703 18.18826,17.2925 13.93977,34.63548 -2.09196,8.54001 -5.83936,16.02349 -16.82552,33.58627 -8.25299,13.19342 -13.90233,23.30986 -18.36097,33.69732 0.56784,-31.28836 -3.34961,-46.22429 -15.56376,-59.43364 -11.8579,-12.82405 -27.39628,-14.78325 -44.48973,-5.60793 -31.62984,16.97805 -47.98816,63.91464 -53.62595,153.8742 -1.22681,19.57562 -1.64465,39.17122 -0.83514,39.17122 3.65848,0 30.93058,-13.18652 32.83805,-15.87794 0.64309,-0.90741 1.82244,-12.45854 2.62213,-25.66932 3.63584,-60.06299 14.17218,-105.65911 29.76111,-128.79267 11.31767,-16.79512 28.06743,-15.95229 36.52875,1.83803 6.21804,13.07377 7.62938,37.45584 3.45124,59.62893 -6.1944,32.87308 -19.54203,58.83271 -42.50955,82.67905 -16.87104,17.51659 -34.69047,28.38742 -64.90333,39.59626 -43.6653,16.19969 -64.0286,28.65947 -83.28041,50.95379 -13.50377,15.63787 -22.692,32.1684 -28.79919,51.76559 0.18124,-3.20359 0.3496,-6.85178 0.54938,-11.77109 1.09997,-27.08548 2.51439,-33.6485 8.65928,-40.1783 2.48681,-2.64258 4.51298,-5.29859 4.50371,-5.90278 -0.0847,-5.48358 -1.9312,-5.72853 -39.2012,-5.19436 -31.76123,0.45525 -37.50893,0.93481 -38.38215,3.20507 -1.76535,4.58974 1.18251,6.81093 11.39813,8.58708 17.80207,3.09517 23.51556,14.19639 23.52072,45.70581 0.005,27.93369 -4.11422,41.59918 -15.45912,51.29842 -3.64773,3.11861 -6.17779,3.78832 -13.45478,3.56311 -10.32312,-0.31949 -14.33204,-2.59297 -22.16236,-12.57331 -9.72732,-12.39818 -16.84701,-33.08983 -21.84843,-63.5003 -2.02873,-12.33538 -2.36754,-19.34575 -2.36857,-49.10043 -0.002,-32.90529 0.15827,-35.54238 3.06888,-50.6666 5.84018,-30.34702 14.74334,-51.14012 26.73046,-62.42045 4.57888,-4.30889 6.95169,-5.22891 15.08079,-5.85299 11.20782,-0.86045 15.48404,0.94805 22.45617,9.49651 10.67134,13.08398 12.74869,35.51714 4.32259,46.68227 -2.87608,3.81099 -2.93633,4.21556 -1.32213,8.86087 0.93024,2.67699 3.42382,6.7589 5.5421,9.06955 3.24971,3.54474 4.91383,4.09541 10.64751,3.52865 8.55035,-0.84519 13.75406,-6.60894 16.53775,-18.31335 5.06625,-21.30163 -3.36209,-46.96636 -20.99719,-63.93874 -0.92165,-0.88702 -1.77035,-1.63406 -2.63219,-2.40476 1.64279,-1.56883 6.88308,-7.72038 12.10045,-14.23903 31.58826,-39.46637 62.73976,-66.48556 105.29384,-91.32165 31.73975,-18.52437 63.69691,-31.40297 96.03488,-38.70022 11.32072,-2.55462 13.8036,-2.76045 33.61482,-2.7896 z m -397.23005,14.97042 c -0.023,0.01 -0.0948,0.0209 -0.0704,0.0268 0.14141,0.032 0.27045,0.0347 0.39442,0.0211 -0.10868,-0.0144 -0.21414,-0.0454 -0.32399,-0.0479 z m 232.68967,77.88675 c -1.2771,-0.0633 -3.25013,0.31912 -6.02507,0.99943 -12.79188,3.13613 -30.72115,15.04227 -44.96264,29.85851 -12.0978,12.58607 -24.1754,31.16427 -20.26066,31.16427 0.3524,0 2.82365,-1.22089 5.4938,-2.7111 8.73505,-4.87509 14.95657,-1.374 18.65478,10.49978 2.15891,6.93156 3.63668,32.64337 3.66656,63.75111 0.0148,15.42412 0.36888,32.44781 0.78483,37.83098 l 0.75464,9.78754 11.41021,-8.16777 c 6.27487,-4.49237 13.40521,-9.20642 15.84549,-10.47489 3.38237,-1.75812 4.57578,-3.25437 5.0229,-6.29336 0.32259,-2.19254 0.76524,-30.2779 0.98406,-62.41279 0.43796,-64.31637 0.95769,-69.77885 8.13002,-85.39589 2.75716,-6.00347 3.31071,-8.29664 0.50108,-8.43582 z m -273.4404,140.86627 c 2.91059,0.0554 5.27889,0.62161 6.62879,1.74039 2.60678,2.16048 2.79859,7.86872 0.37631,11.18139 -1.31227,1.79463 -3.75746,2.52434 -9.41191,2.81066 -4.20153,0.21276 -8.51394,0.0729 -9.58497,-0.31208 -1.07102,-0.38498 -4.43137,-1.58705 -7.46594,-2.6709 -3.03456,-1.08387 -5.51795,-2.7195 -5.51795,-3.63395 0,-0.91446 3.65133,-3.31068 8.11392,-5.32647 5.65346,-2.55369 12.01077,-3.8813 16.86175,-3.78904 z m 338.4021,26.10585 -14.67429,6.08275 c -8.07083,3.34528 -15.63849,6.35354 -16.81546,6.68394 -1.87203,0.52552 -2.13781,2.32846 -2.12709,14.40177 0.007,7.59088 0.55644,22.1071 1.22152,32.25753 4.48505,68.45145 15.4331,108.28788 32.94067,119.8648 14.82514,9.80315 33.8652,-0.0892 41.6724,-21.65053 3.16271,-8.73451 5.55512,-23.24812 4.35077,-26.39878 -0.73506,-1.92295 -1.43531,-0.78177 -3.26006,5.32073 -5.40506,18.07606 -18.1832,20.21141 -25.86514,4.32129 -8.41004,-17.39612 -15.37636,-67.01179 -15.72676,-112.00528 -0.0682,-8.75036 -0.48376,-18.82717 -0.92167,-22.3934 z"
       transform="matrix(1.3557918,0,0,1.3466729,-181.38874,-143.48672)" /><path
       style="fill:#a0892c;fill-opacity:1;fill-rule:nonzero;stroke:#967a35;stroke-width:0.917973;stroke-opacity:1"
       d=""
       id="path12032" /><path
       style="fill:#a0892c;fill-opacity:1;fill-rule:nonzero;stroke:#967a35;stroke-width:0.917973;stroke-opacity:1"
       d=""
       id="path12034" /><path
       style="fill:#a0892c;fill-opacity:1;fill-rule:nonzero;stroke:#967a35;stroke-width:0.458987;stroke-opacity:1"
       d=""
       id="path12042" /><path
       style="fill:#ffffff;fill-opacity:1;fill-rule:nonzero;stroke:#967a35;stroke-width:1.29821;stroke-opacity:1"
       d=""
       id="path15191" /><path
       style="fill:#ffffff;fill-opacity:1;fill-rule:nonzero;stroke:#967a35;stroke-width:0.649105;stroke-opacity:1"
       d=""
       id="path15201" /><path
       style="fill:#000000;fill-opacity:1;fill-rule:nonzero;stroke:#967a35;stroke-opacity:1"
       d="m 1998.4446,-313.98921 c -27.0875,-4.41896 -54.2451,-18.82913 -75.2736,-39.94119 -25.2544,-25.35471 -39.6142,-52.78747 -46.6232,-89.06832 -0.8435,-4.36631 -1.3423,-13.96046 -1.3257,-25.5 0.022,-15.49242 0.3959,-20.16779 2.2981,-28.75881 5.9794,-27.00418 20.0263,-50.78885 39.7475,-67.30159 l 7.4499,-6.23793 -12.3442,-6.13248 c -15.2547,-7.57842 -23.9721,-13.96472 -35.2756,-25.84272 -21.6516,-22.75218 -32.3331,-47.64291 -38.4299,-89.5517 -6.3282,-43.49978 -14.6784,-66.19793 -39.9793,-108.67477 -12.2372,-20.54468 -18.5157,-33.0067 -22.1677,-44 -1.9556,-5.88694 -2.3254,-9.0671 -2.3254,-20 0,-12.54517 0.1117,-13.23584 3.1931,-19.74075 5.9905,-12.64594 18.537,-21.67713 35.3069,-25.4145 9.0005,-2.00587 34.0538,-2.24694 47,-0.45226 51.9453,7.20097 105.6899,28.18366 159,62.07599 54.0961,34.39197 91.4182,68.64058 128.8387,118.22876 6.9301,9.18348 12.7574,16.54003 12.9495,16.34789 0.1922,-0.19214 -0.1316,-2.95105 -0.7194,-6.1309 -0.5878,-3.17985 -1.0688,-7.19223 -1.0688,-8.91639 0,-5.49737 2.9196,-13.21647 6.9065,-18.26035 l 3.8679,-4.89317 -2.7569,-7.92216 c -10.9074,-31.34315 -28.5721,-61.16913 -48.994,-82.72385 -8.0115,-8.45592 -21.6502,-19.56672 -28.6376,-23.32971 -3.3237,-1.78993 -3.3389,-1.78778 -6.1089,0.86545 -13.1239,12.5705 -34.0134,2.86413 -32.014,-14.87531 0.9948,-8.825 9.3935,-16.35874 18.237,-16.35874 8.0255,0 16.2488,6.28441 18.2065,13.91384 0.7016,2.73438 2.1085,4.16324 7.0686,7.17915 32.5963,19.81949 62.9612,60.11809 80.5543,106.90701 4.0576,10.79128 4.4734,11.46994 6.7473,11.01221 3.1169,-0.62741 12.5776,-0.62672 16.3361,10e-4 2.5376,0.42394 3.0353,0.10026 3.8649,-2.51339 2.5686,-8.09341 9.6026,-24.36622 15.777,-36.49967 16.9588,-33.32596 38.8399,-59.46897 63.623,-76.01509 8.7255,-5.82544 10.9841,-7.8318 11.6571,-10.3553 1.2139,-4.55167 5.2132,-9.35867 9.6833,-11.63917 12.9139,-6.58818 28.7089,5.00718 26.5382,19.48216 -1.9844,13.23325 -18.7834,20.13281 -29.0976,11.95078 -2.0271,-1.60804 -4.2767,-3.35065 -4.999,-3.87247 -1.8559,-1.34059 -16.5159,8.60818 -26.1023,17.71387 -9.1279,8.67012 -20.4685,22.01767 -27.1655,31.97294 -10.6309,15.8032 -22.5616,40.07527 -29.316,59.64079 l -1.8568,5.37884 2.9843,3.39897 c 5.4433,6.19953 7.3248,11.10808 7.4147,19.34335 0.045,4.125 -0.2684,9.3 -0.6966,11.5 l -0.7786,4 2.7786,-3.06403 c 1.5282,-1.68522 8.2476,-10.23522 14.932,-19 48.9238,-64.14972 119.483,-118.14833 196.9516,-150.72576 39.1856,-16.47852 76.2547,-25.00542 108.8949,-25.04876 18.5764,-0.0247 27.0473,1.477 38.1948,6.77093 21.8078,10.35645 29.5875,30.88744 22.186,58.54965 -2.8664,10.71288 -7.8399,20.72624 -21.8631,44.01815 -25.5923,42.50743 -33.3658,63.55789 -40.0669,108.5 -4.3194,28.96883 -8.6503,44.12239 -17.6587,61.78694 -9.4219,18.47549 -22.9392,33.99759 -39.6915,45.57846 -6.7884,4.69282 -19.8319,11.74104 -26.3403,14.23327 l -2.7603,1.05699 4,3.16503 c 17.3613,13.73729 32.4052,34.95014 39.4311,55.60055 11.9522,35.12974 8.1464,79.01329 -9.9922,115.21728 -18.5115,36.94834 -49.2709,65.0595 -84.9389,77.62626 -16.0276,5.64695 -22.7605,6.69882 -43,6.71784 -20.8388,0.0196 -26.6641,-0.83871 -44.0279,-6.48701 -34.856,-11.3384 -63.0965,-34.53184 -83.5868,-68.6485 -3.4262,-5.70467 -7.0006,-12.39149 -7.9432,-14.85962 -0.9426,-2.46812 -1.9966,-4.48749 -2.3423,-4.48749 -0.3457,0 -1.6529,5.0121 -2.905,11.138 -6.4445,31.53205 -18.7902,46.27929 -35.0726,41.89491 -11.7434,-3.16217 -20.704,-20.42643 -25.5793,-49.28291 -0.3484,-2.0625 -0.9506,-3.72134 -1.3382,-3.6863 -0.3876,0.035 -2.5969,3.97253 -4.9095,8.75 -20.2877,41.91038 -58.8838,73.04997 -103.2952,83.33938 -11.4254,2.64709 -38.8846,3.37384 -51.2509,1.35643 z m 37.3419,-2.58742 c 31.8924,-4.08813 60.6035,-18.40114 83.9445,-41.84793 15.0821,-15.1504 27.0584,-33.09396 35.0075,-52.44988 4.3329,-10.55051 5.957,-12.80083 5.957,-8.25381 0,9.06247 7.0989,38.95615 11.1497,46.95188 6.5385,12.9062 15.7946,17.64511 25.4839,13.04725 9.4958,-4.50606 17.7781,-24.40522 21.3807,-51.3696 0.6246,-4.675 1.3545,-9.17109 1.6219,-9.99131 0.2755,-0.84485 1.9472,1.86849 3.8565,6.25938 5.5423,12.74548 12.1132,25.23926 17.3349,32.95987 14.4772,21.40552 35.4074,39.88134 58.0123,51.20945 16.8985,8.46845 42.2835,14.56261 60.6601,14.56261 37.5787,0 76.4464,-18.74205 102.3567,-49.35656 18.5489,-21.91663 29.7507,-44.28758 36.2594,-72.41313 2.9318,-12.66927 3.7031,-41.31032 1.4593,-54.19121 -3.009,-17.27401 -9.5271,-33.66225 -19.1671,-48.19153 -5.818,-8.76874 -22.1887,-25.53981 -28.1768,-28.86578 -2.3476,-1.30397 -4.1171,-2.82494 -3.9321,-3.37994 0.185,-0.55499 3.9058,-2.414 8.2685,-4.13112 15.7197,-6.18719 27.4922,-13.68566 39.5048,-25.16242 23.3448,-22.30345 34.5372,-47.37008 41.4395,-92.80831 7.174,-47.22627 15.5755,-69.11133 44.9155,-117 16.7665,-27.36633 22.6801,-46.91875 19.1816,-63.42171 -2.8747,-13.56076 -9.9125,-22.16724 -22.9671,-28.0865 -10.4747,-4.74945 -19.1197,-6.24149 -36.1422,-6.23778 -62.3612,0.0136 -144.3131,33.45053 -216.5609,88.35834 -34.3803,26.12875 -64.383,56.36648 -90.6774,91.38765 -12.6441,16.84045 -15.0437,19.5 -17.5938,19.5 -1.8393,0 -1.9083,-0.43938 -1.138,-7.25 1.8655,-16.49431 0.3606,-23.52165 -6.4647,-30.18631 l -3.9182,-3.82602 2.8147,-7.61883 c 15.0161,-40.64688 33.7981,-70.87834 57.9866,-93.33485 8.4022,-7.80054 25.0573,-19.78399 27.4967,-19.78399 0.7287,0 2.0762,1.14648 2.9943,2.54774 2.5226,3.84998 7.4953,6.44429 12.3604,6.44852 14.5709,0.0127 21.5201,-17.8171 10.4883,-26.91039 -9.4793,-7.81367 -23.4359,-2.77194 -25.6974,9.28305 -0.462,2.46258 -1.5985,3.6678 -5.311,5.63205 -32.2319,17.05382 -66.5052,62.70869 -83.7027,111.49903 -3.0645,8.69417 -3.2727,8.994 -6.1246,8.8235 -1.6238,-0.0971 -5.2023,-0.30763 -7.9523,-0.4679 -2.75,-0.16027 -7.3154,0.0834 -10.1453,0.54144 l -5.1453,0.83284 -0.6894,-3.13877 c -0.3791,-1.72633 -2.4042,-7.51556 -4.5,-12.86495 -11.7598,-30.01506 -27.3314,-55.67205 -46.8195,-77.14339 -8.5081,-9.37394 -25.7256,-23.48503 -34.1031,-27.9502 -5.2447,-2.7954 -5.901,-3.50328 -6.454,-6.96115 -1.844,-11.53207 -17.1849,-15.8652 -25.7709,-7.27917 -6.4825,6.48251 -6.2513,15.44053 0.5692,22.0512 2.8802,2.79166 4.4374,3.4649 8.8627,3.83188 6.2799,0.52078 10.503,-1.24324 13.8659,-5.79184 1.2132,-1.64092 2.6225,-2.98349 3.1318,-2.98349 0.5093,0 5.4872,2.97432 11.062,6.60959 23.2404,15.15497 46.7708,44.52816 62.9428,78.57223 4.5963,9.67598 13.6931,32.87656 13.6931,34.92331 0,0.64416 -1.7774,3.09943 -3.9497,5.45614 -6.0482,6.56158 -7.6175,13.14707 -5.9782,25.08739 1.0076,7.33868 1.0253,9.65396 0.081,10.59821 -1.9907,1.99073 -3.9522,0.0449 -15.942,-15.81452 -29.5901,-39.14001 -56.28,-66.31046 -91.2111,-92.8531 -26.2434,-19.94129 -49.4194,-34.63801 -77.5,-49.14562 -51.3801,-26.54512 -101.1537,-40.75821 -142.5,-40.69162 -17.935,0.0289 -25.6298,1.47841 -36.7028,6.91394 -8.5633,4.20353 -15.266,10.9094 -19.1171,19.12598 -2.4554,5.23863 -2.6751,6.72422 -2.6205,17.71807 0.052,10.37028 0.4412,13.15438 2.8693,20.5 3.7394,11.31308 9.1019,21.77809 22.5464,44 22.007,36.37445 32.2233,62.78272 37.5254,97 7.3193,47.23565 13.414,65.24485 29.3378,86.68972 15.1632,20.42055 35.696,35.25744 60.4115,43.65305 0.9625,0.32695 1.7218,0.94608 1.6873,1.37585 -0.034,0.42976 -3.4803,3.25638 -7.6573,6.28138 -13.7098,9.9286 -28.8633,29.83887 -36.2929,47.68563 -16.7563,40.25057 -10.3964,94.08568 15.8209,133.91991 12.0475,18.30472 22.4731,29.58704 38.192,41.33026 27.8529,20.80826 61.6558,30.144 94.091,25.98629 z m 313.2351,-7.9962 c -30.1945,-2.75634 -59.2556,-16.76757 -81.8261,-39.45085 -21.0588,-21.16405 -33.9637,-44.5625 -44.0738,-79.91228 -3.2419,-11.33515 -4.3835,-13.51209 -7.1048,-13.54745 -3.5128,-0.0456 -4.0412,2.61561 -4.6007,23.16928 -0.7356,27.02113 -4.499,47.14496 -11.0929,59.31541 -6.0922,11.24468 -13.1794,11.77051 -19.4074,1.43994 -7.0504,-11.69483 -11.1305,-32.19551 -11.8297,-59.43994 -0.564,-21.97376 -0.7293,-23.15529 -3.3552,-23.98875 -3.736,-1.18575 -5.6576,1.04289 -7.4981,8.69602 -12.2343,50.8723 -40.2197,89.5478 -79.3348,109.63987 -19.5928,10.06408 -36.5665,14.16157 -58.5631,14.13719 -21.5297,-0.0239 -36.8654,-3.85797 -56.7863,-14.1973 -28.6702,-14.8804 -53.525,-43.07872 -66.36,-75.28703 -16.993,-42.6423 -13.0686,-89.71496 10.1978,-122.31986 6.6754,-9.35479 18.6787,-20.72663 29.2172,-27.68014 9.1743,-6.05347 11.4855,-9.06699 9.4404,-12.30917 -0.5203,-0.82479 -6.1074,-3.17204 -12.4159,-5.21612 -19.9321,-6.45846 -34.2422,-15.10161 -47.9849,-28.98253 -12.4018,-12.52649 -21.0349,-27.07736 -27.39,-46.16502 -3.3296,-10.00026 -5.1921,-19.01471 -9.5722,-46.32716 -6.0505,-37.72877 -15.8286,-63.2024 -38.9611,-101.5 -19.3537,-32.0416 -24.4539,-44.74332 -24.4938,-61 -0.019,-7.87857 0.3805,-10.39463 2.3426,-14.74164 4.2803,-9.48343 13.7315,-15.79316 28.2984,-18.89254 9.198,-1.95701 38.8614,-1.36391 52.3283,1.04627 58.9725,10.55436 121.642,39.57916 179.3612,83.06959 36.4578,27.47032 62.2882,53.61341 92.1422,93.25776 6.9418,9.21831 14.1224,17.77306 15.9569,19.01056 6.575,4.43526 13.8894,1.8213 16.166,-5.77721 0.9622,-3.21163 0.8615,-5.36836 -0.5576,-11.93626 -1.9615,-9.07826 -1.5445,-12.74393 2.0889,-18.36503 6.2771,-9.71101 25.9036,-10.40131 33.1676,-1.16658 3.7545,4.773 4.5396,9.84069 2.7514,17.75905 -1.9649,8.70106 -1.9825,12.05045 -0.082,15.72499 3.075,5.94636 10.1963,7.85057 15.7248,4.20475 1.4955,-0.98621 8.0412,-8.97074 14.546,-17.74341 17.0781,-23.03232 29.8219,-37.78901 48.3783,-56.01983 17.6315,-17.32208 28.5427,-26.71241 47.3566,-40.75603 56.3692,-42.07658 116.5839,-70.01837 174.284,-80.87404 9.6482,-1.81522 15.4223,-2.21273 32.716,-2.25232 20.5243,-0.047 21.1801,0.0156 28.9488,2.76157 17.1165,6.05021 23.5512,14.96865 23.5512,32.64195 0,13.26778 -5.6672,28.8311 -17.4964,48.0484 -14.3518,23.31556 -17.2214,28.35975 -24.0779,42.32344 -11.5189,23.45903 -18.2212,46.43089 -22.9549,78.67656 -6.0204,41.01073 -15.3917,63.37893 -35.2702,84.18545 -13.5805,14.21455 -28.9926,23.58494 -49.0312,29.81046 -10.4617,3.25021 -13.9489,5.80901 -12.6236,9.26273 0.3251,0.84725 4.8672,4.32523 10.0935,7.72886 33.6566,21.91875 51.6976,58.18044 50.0073,100.5125 -0.8951,22.41693 -5.9588,42.37488 -15.7306,62 -14.513,29.14733 -41.8401,55.93296 -69.0173,67.64969 -19.0328,8.20548 -39.6734,11.59272 -59.5726,9.7762 z m -310.5567,-4.48886 c 45.8031,-6.8011 84.4173,-38.65166 104.9806,-86.59219 3.6163,-8.4309 8.6391,-23.52411 12.1972,-36.65215 1.5332,-5.65687 4.1684,-8.19269 8.5139,-8.19269 6.5164,0 7.1402,1.72353 7.8795,21.77044 0.986,26.739 4.7563,49.07309 10.2677,60.82347 5.1458,10.97091 9.763,11.08734 15.1506,0.38205 6.4676,-12.85147 10.2411,-34.48234 10.2411,-58.70507 0,-20.98748 1.2087,-24.27089 8.9343,-24.27089 3.953,0 6.6858,2.79002 8.0293,8.19725 2.6779,10.77829 9.6798,31.26161 14.0329,41.05157 20.1302,45.27232 61.3115,77.11264 106.9773,82.71214 47.2253,5.79071 91.4653,-16.58528 120.5271,-60.96096 10.9829,-16.77016 18.1471,-35.09638 22.0458,-56.393 2.1665,-11.83502 2.174,-33.40694 0.016,-44.92595 -5.7449,-30.65857 -23.3979,-55.9627 -51.3436,-73.59714 -5.8687,-3.7033 -7.2186,-5.556 -7.2186,-9.90738 0,-4.68806 2.7389,-6.64918 14.7056,-10.52953 14.6621,-4.75434 20.3219,-7.41318 30.9757,-14.55171 19.5876,-13.1246 34.9326,-33.85662 42.6296,-57.59529 3.8748,-11.95031 5.2821,-18.29634 8.2055,-37 7.8299,-50.0956 15.153,-70.25875 41.0407,-113 15.217,-25.12377 19.7312,-34.22061 22.5636,-45.46936 3.9128,-15.53938 0.5722,-29.54494 -8.6207,-36.14347 -22.0985,-15.86184 -80.4719,-9.45081 -141.5,15.54067 -14.591,5.97508 -43.6586,20.88156 -60.5,31.02564 -13.7367,8.27398 -35.8882,23.3916 -48.6242,33.18432 -32.1426,24.71444 -64.7905,58.36715 -89.1193,91.8622 -4.7939,6.6 -9.2951,12.675 -10.0027,13.5 -6.9652,8.12076 -17.6055,8.64288 -23.7683,1.16631 -3.8956,-4.72609 -4.5322,-9.57111 -2.4294,-18.49084 1.9646,-8.33334 1.4807,-13.08765 -1.7503,-17.1952 -5.7864,-7.35625 -20.8252,-7.35625 -26.6117,0 -3.1116,3.95581 -3.603,8.44701 -1.9222,17.56774 2.3067,12.51663 0.122,18.56317 -8.0066,22.15879 -3.9032,1.72661 -5.118,1.8543 -8.3705,0.87983 -6.4529,-1.93332 -7.3826,-2.93952 -26.8731,-29.08663 -39.8049,-53.39941 -98.2119,-100.98083 -164.8985,-134.33486 -43.9168,-21.96551 -87.5949,-34.69807 -124.6233,-36.32886 -21.8838,-0.96379 -39.4089,3.39296 -46.8704,11.65198 -5.5,6.08784 -6.9853,11.40074 -6.3621,22.75672 0.8693,15.83933 4.2775,23.88652 24.0369,56.75502 14.6693,24.40137 22.4185,40.4226 28.8206,59.58538 5.4334,16.26342 7.5897,25.74397 11.3531,49.91462 4.2329,27.18649 7.8757,40.61451 14.7848,54.5 14.1757,28.48926 35.7236,46.79918 67.1613,57.06883 11.9309,3.89744 15.5758,6.53343 15.5758,11.26443 0,3.77336 -2.1583,6.48767 -7.7333,9.72554 -12.2541,7.11701 -26.2537,20.1679 -33.7266,31.4412 -13.1423,19.82587 -18.8725,39.45817 -18.8261,64.5 0.058,31.26565 10.3587,61.35035 29.8184,87.08945 14.4274,19.08297 28.3637,30.7095 48.9676,40.85202 23.0092,11.32654 44.2902,14.70461 69.2694,10.99556 z m -30.4208,-23.49244 c -32.1743,-4.19371 -60.7312,-23.13803 -77.5482,-51.44459 -16.1357,-27.1597 -19.7895,-67.03649 -9.1628,-100 9.1115,-28.26354 29.4305,-56.31617 53.3845,-73.70319 3.2558,-2.36325 5.923,-4.74681 5.9272,-5.29681 0,-0.55 -2.5362,-2.8 -5.6452,-5 -3.109,-2.2 -9.6053,-7.93067 -14.4362,-12.73481 -5.5113,-5.48075 -9.3184,-8.52956 -10.2193,-8.18385 -0.7897,0.30304 -4.5212,-1.01264 -8.2922,-2.92372 -26.9199,-13.64247 -50.5751,-41.45178 -60.617,-71.26214 -5.051,-14.99431 -6.1242,-21.65941 -6.1017,-37.89548 0.029,-20.77343 4.0509,-35.43913 13.8906,-50.64981 6.6182,-10.23071 15.1385,-18.1296 24.3712,-22.59392 6.6358,-3.20859 8.5525,-3.68021 15.1005,-3.71566 6.4488,-0.0349 8.165,0.35028 12.2444,2.74828 7.0665,4.15384 10.3091,12.47393 7.8112,20.04257 -1.5394,4.66462 -7.8791,10.27467 -13.2433,11.71908 -6.4126,1.72673 -10.8161,4.24876 -16.7947,9.61889 -25.6794,23.06599 -25.2079,70.06472 1.0766,107.30791 5.0673,7.17985 21.8076,25.45418 22.5957,24.66613 0.2096,-0.20958 -1.1863,-3.0276 -3.102,-6.26227 -6.5856,-11.11995 -11.5143,-25.62733 -13.549,-39.8812 -6.1732,-43.24503 16.8273,-84.64503 56.0239,-100.84094 12.8226,-5.29825 22.2202,-7.02019 37.9372,-6.95135 17.0657,0.0747 28.2394,2.76976 43.1974,10.41891 8.639,4.41779 11.7737,6.7336 19.413,14.34163 7.5161,7.48532 9.839,10.57834 13.2737,17.6744 11.3648,23.4795 8.867,49.24991 -6.2352,64.3321 -13.5721,13.55404 -34.8311,16.26133 -49.7039,6.32968 -3.2971,-2.20174 -7.0951,-5.44573 -8.4399,-7.20885 -6.1669,-8.08531 -9.2999,-20.95487 -5.9912,-24.61092 2.3194,-2.56286 2.9337,-2.50779 7.0502,0.632 3.0643,2.33727 4.121,2.57271 9.8961,2.20498 5.3309,-0.33945 7.13,-0.94037 10.2526,-3.42463 2.083,-1.65712 4.83,-5.01186 6.1044,-7.45498 2.054,-3.93733 2.2744,-5.52141 1.94,-13.94203 -0.3147,-7.9256 -0.853,-10.49075 -3.2478,-15.47819 -11.9337,-24.85308 -46.9524,-29.61568 -67.6907,-9.20606 -6.4182,6.31646 -12.7324,17.85844 -15.9967,29.24084 -1.966,6.85515 -2.2739,10.20393 -2.2473,24.44341 0.043,22.90547 3.6998,38.68896 13.4389,58 4.2192,8.36594 14.4077,23.11336 19.0234,27.53539 2.84,2.72092 3.1945,2.80928 6.2371,1.55444 20.3288,-8.3842 27.866,-10.05243 39.0848,-8.65072 7.3056,0.91276 14.2354,5.46573 17.5962,11.56089 3.6182,6.56204 3.5433,16.76753 -0.1696,23.10313 -2.971,5.06951 -8.1071,9.0477 -14.6612,11.35587 -8.5736,3.01936 -25.929,1.42656 -39.538,-3.62861 l -5.9138,-2.19671 -4.4113,4.93316 c -5.6616,6.33142 -15.5482,21.09144 -19.715,29.43316 -15.4461,30.92275 -18.645,67.01643 -8.5974,97.00638 8.2706,24.68635 20.4951,40.26733 38.8103,49.46653 6.7161,3.37328 13.1013,4.618 23.6897,4.618 15.3203,0 26.0606,-4.5921 36.4613,-15.58938 16.1775,-17.10529 18.8778,-50.66175 5.2873,-65.70477 -5.8079,-6.42871 -10.3069,-8.27221 -20.1974,-8.27612 -9.4981,-0.004 -12.2791,1.04757 -18.6398,7.04643 -5.1924,4.89711 -6.9352,5.73074 -9.3164,4.45635 -5.1286,-2.74474 -5.1419,-18.99219 -0.024,-29.56404 4.5783,-9.45761 15.1337,-18.13689 26.3761,-21.68798 4.7749,-1.50823 8.2819,-1.8527 16.1042,-1.58184 9.112,0.31552 10.6989,0.6784 17.8711,4.0866 15.2217,7.23327 26.993,22.44829 32.2802,41.72384 2.6815,9.77611 2.4215,33.67558 -0.4841,44.5 -12.744,47.47613 -61.742,78.23245 -113.8186,71.44459 z m 41.0056,-5.83133 c 9.8303,-2.60924 24.895,-9.68838 33.1444,-15.57502 12.7144,-9.07278 24.4832,-22.86391 30.5202,-35.76469 5.5082,-11.77076 7.142,-19.05094 7.7042,-34.32997 0.6063,-16.47557 -1.1748,-25.75303 -7.3804,-38.44358 -4.5612,-9.32768 -15.1422,-20.24826 -23.5057,-24.26008 -20.7965,-9.97564 -45.6751,-2.653 -55.8519,16.43915 -2.8451,5.33745 -3.4367,7.60403 -3.8024,14.56758 -0.5962,11.35395 0.6442,12.81727 6.2301,7.34971 6.1462,-6.01596 12.5531,-8.55499 21.5873,-8.55499 8.9529,0 14.6292,2.23211 21.2903,8.37204 13.0498,12.02893 15.2021,38.64426 4.8194,59.59741 -13.3379,26.91705 -44.9833,36.94411 -73.9874,23.4434 -27.0243,-12.57915 -45.4377,-48.47455 -45.3749,-88.45422 0.054,-34.28979 12.5952,-67.35035 35.0722,-92.45528 l 6.089,-6.80088 8.9894,3.37656 c 12.1762,4.57357 18.0654,5.69914 27.0195,5.16406 9.1119,-0.54451 14.3515,-2.94423 19.4603,-8.91269 8.245,-9.6324 5.2437,-24.47219 -6.0618,-29.97255 -7.7083,-3.75027 -15.9544,-3.7591 -27.088,-0.029 -5.0451,1.69029 -11.9903,4.49542 -15.4337,6.23363 l -6.2607,3.16039 -6.4266,-6.88212 c -20.9694,-22.45566 -32.3292,-52.91773 -32.3997,-86.88212 -0.023,-11.07649 0.4285,-15.8794 2.1623,-23 6.1882,-25.41513 21.7442,-42.09457 42.5232,-45.59417 13.9854,-2.35541 27.5093,1.03222 37.6967,9.44277 9.7449,8.0451 14.9543,19.46256 14.8666,32.5829 -0.1038,15.53566 -8.6433,25.76235 -22.4018,26.82783 -3.9537,0.30618 -6.1175,-0.1544 -9.9371,-2.11519 l -4.8828,-2.50659 0.566,5.48378 c 0.345,3.34319 1.7041,7.51261 3.4816,10.68123 10.4852,18.69124 38.8028,21.20788 55.1127,4.89797 8.6226,-8.62262 12.074,-17.96087 12.0934,-32.72063 0.023,-17.59483 -6.0173,-31.78946 -18.9282,-44.4799 -17.4231,-17.12546 -38.7178,-24.87316 -65.0599,-23.6708 -15.5496,0.70975 -22.7799,2.45375 -35.5,8.56284 -23.297,11.1889 -38.5764,29.08422 -47.0523,55.10796 -2.367,7.26764 -2.8303,10.60227 -3.1956,23 -0.5011,17.00899 1.3633,28.33277 6.9597,42.27083 7.5352,18.76667 24.3777,39.66207 42.9669,53.30617 4.9411,3.62663 8.7858,6.79182 8.5439,7.03376 -0.242,0.24194 -3.1665,2.34099 -6.4991,4.66456 -24.8628,17.3353 -45.7283,45.07236 -55.1818,73.35493 -21.2921,63.70015 7.8344,127.29364 66.4583,145.10203 10.9246,3.31859 18.8867,4.21794 34,3.84041 11.0641,-0.27638 17.0609,-0.92172 22.8542,-2.45943 z m -14.8542,-221.12936 c -5.1572,-1.02754 -12.5,-3.96875 -12.5,-5.00699 0,-1.44849 9.3659,-6.09807 15.4245,-7.65727 9.5059,-2.44638 16.5755,-0.14276 16.5755,5.40109 0,7.05376 -7.162,9.72141 -19.5,7.26317 z m 12.1786,-2.97025 c 0.6482,-0.008 1.8848,-0.7199 2.748,-1.5831 1.229,-1.22904 1.3303,-2.01624 0.467,-3.62941 -0.97,-1.81239 -1.7812,-1.99844 -6.7492,-1.54795 -3.1057,0.28161 -7.4462,1.26749 -9.6455,2.19083 -3.4376,1.44316 -3.7524,1.81802 -2.2426,2.67062 2.4654,1.39223 9.854,2.78678 12.2437,2.31092 1.1,-0.21904 2.5304,-0.4044 3.1786,-0.41191 z m -112.8296,-42.00771 c -17.6107,-19.7346 -23.2125,-28.02068 -29.8633,-44.17333 -13.2586,-32.20064 -9.4269,-65.40786 9.824,-85.1402 6.2287,-6.38446 12.4712,-10.42748 19.0556,-12.34163 3.037,-0.88287 6.9351,-2.97375 8.8984,-4.77298 2.8901,-2.64865 3.5675,-4.055 3.9204,-8.13983 0.8668,-10.03232 -5.0102,-15.43797 -16.7841,-15.43797 -21.7432,0 -43.9352,26.75694 -48.9867,59.0634 -1.7519,11.20379 -0.6236,30.30514 2.5066,42.4366 5.3236,20.63254 18.9735,43.17695 35.7901,59.11203 7.0709,6.70014 18.2652,15.22546 20.139,15.3373 0.4669,0.0279 -1.5581,-2.64666 -4.5,-5.94339 z m 349.5577,234.98303 c -6.2019,-1.25935 -10.3866,-3.28939 -16.0554,-7.78877 -5.7937,-4.59852 -15.0508,-17.79886 -18.3325,-26.14156 -8.325,-21.16375 -8.9342,-47.03179 -1.6934,-71.90339 l 2.4294,-8.34475 -5.1274,4.93329 c -11.4847,11.04995 -21.7495,17.33657 -35.6274,21.81987 -7.5935,2.4531 -10.0464,2.75452 -23,2.82638 -17.0301,0.0945 -27.1858,-2.01953 -40.6744,-8.46682 -24.7559,-11.83281 -46.142,-38.97525 -53.3341,-67.68947 -10.1425,-40.4941 0.6788,-83.28048 27.8942,-110.2907 12.9243,-12.82693 27.377,-21.06278 45.9389,-26.17831 10.5276,-2.90135 33.3601,-3.07902 43.6754,-0.33986 21.7024,5.76291 38.5993,18.11398 45.9053,33.55512 2.5609,5.41245 3.1456,8.01847 3.442,15.34133 0.3344,8.26237 0.1546,9.23254 -2.8377,15.31081 -5.127,10.41442 -14.3862,15.33126 -26.5141,14.07955 -11.1586,-1.15166 -21.4955,-10.12 -21.4955,-18.64949 0,-2.44554 0.7637,-3.5192 3.9207,-5.51214 4.3231,-2.72907 5.41,-5.00769 5.3227,-11.15859 -0.2081,-14.64985 -18.7542,-26.23564 -36.057,-22.52486 -8.8252,1.89267 -14.3123,5.11885 -22.2193,13.06406 -5.9681,5.9969 -8.5065,9.54284 -12.2196,17.06933 -21.214,43.00106 -10.6476,113.20689 20.1318,133.76059 13.4685,8.99389 30.5517,8.27089 40.2236,-1.70234 5.9558,-6.14145 7.9691,-11.91908 8.6303,-24.76651 0.6127,-11.908 -0.5459,-17.7058 -4.7636,-23.83599 -4.3381,-6.30517 -9.7405,-8.53441 -22.6156,-9.33205 -9.4493,-0.58541 -10.7542,-0.89967 -12.4546,-2.99959 -2.7145,-3.35236 -2.4624,-8.65196 0.5552,-11.66956 l 2.4545,-2.45455 h 45.1112 c 51.8297,0 50.9298,-0.14441 50.9644,8.17742 0.016,3.86618 -1.3606,5.43718 -7.934,9.0535 -5.2264,2.87528 -7.2098,8.9495 -7.8179,23.94242 -0.2861,7.05466 -0.2723,12.82666 0.031,12.82666 0.3031,0 3.1442,-3.85735 6.3136,-8.57189 21.7046,-32.28538 51.4179,-52.37547 101.9709,-68.94578 37.3556,-12.24445 57.8364,-23.75245 77.452,-43.51959 27.0264,-27.23521 42.24,-61.35856 43.7031,-98.02412 0.6709,-16.812 -0.6833,-25.63134 -5.3759,-35.01141 -14.4644,-28.91261 -38.8224,-6.93665 -52.1752,47.07279 -6.1502,24.87598 -11.3857,66.37981 -12.4254,98.5 l -0.2266,7 -12.2572,6.31248 c -6.7414,3.47187 -17.2039,8.0771 -23.25,10.23384 l -10.9928,3.92136 v -14.40429 c 0,-30.89764 5.0696,-82.13405 10.571,-106.83688 7.7066,-34.6053 17.3673,-55.09488 33.3471,-70.72651 12.4472,-12.1761 23.78,-17.73618 38.192,-18.73774 13.9641,-0.97044 25.9772,3.74426 35.358,13.87664 26.3231,28.43207 22.4248,98.6975 -8.3608,150.70059 -8.2193,13.88414 -25.9984,34.18157 -39.1073,44.64663 -19.8705,15.86307 -34.1899,22.88293 -74.5,36.52255 -32.316,10.93468 -48.3664,18.82366 -64.4061,31.65652 -14.5697,11.65668 -24.4339,23.93809 -33.5048,41.71507 -7.1124,13.93869 -9.034,22.45749 -9.05,40.11974 -0.016,17.7625 1.615,24.85405 6.9413,30.18037 3.9572,3.9572 4.868,4.0622 8.0071,0.9231 5.5315,-5.53154 8.2626,-24.56771 9.1714,-63.92587 l 0.6656,-28.82239 6.8918,-7.37977 c 7.8785,-8.43622 18.8558,-17.00145 29.7348,-23.20109 4.1253,-2.35089 7.7783,-4.27435 8.1179,-4.27435 1.1643,0 1.9349,66.49325 0.9908,85.5 -1.9291,38.83908 -6.7061,57.79304 -17.4642,69.29433 -7.8483,8.39046 -19.5738,12.3501 -30.1889,10.19464 z m 15.3147,-4.49886 c 6.9517,-2.06444 14.3796,-8.90724 18.2422,-16.80529 3.6989,-7.56322 6.5606,-18.55606 8.6305,-33.15275 1.8333,-12.92772 3.0215,-78.82798 1.7184,-95.30506 l -0.8125,-10.27299 -9.2142,5.9631 c -5.0678,3.2797 -13.5059,10.15255 -18.7512,15.27299 l -9.5371,9.30989 -0.019,7.5 c -0.011,4.125 -0.4575,18.00002 -0.993,30.83339 -1.8437,44.18278 -6.0157,59.16661 -16.4739,59.16661 -9.1473,0 -14.843,-14.01026 -14.8388,-36.5 0,-16.55538 2.2105,-25.66799 10.1742,-42 10.088,-20.68861 24.3444,-36.86159 44.0674,-49.99176 13.806,-9.19098 28.154,-15.63607 54.6605,-24.55336 33.8685,-11.39401 46.2899,-16.79122 60.4255,-26.25529 26.267,-17.58631 46.9654,-41.64322 60.5822,-70.4121 11.0838,-23.41717 16.3661,-47.35011 16.3963,-74.28749 0.031,-27.87829 -5.9414,-46.20859 -19.0524,-58.47234 -12.3475,-11.54971 -30.7437,-13.29371 -48.4261,-4.59091 -32.1684,15.83247 -49.5841,56.64659 -56.9419,133.44508 -1.9761,20.62596 -4.0252,61.48436 -3.1285,62.38105 1.1388,1.13882 16.2504,-4.4273 28.3204,-10.43136 10.7179,-5.33149 11.2507,-5.74364 11.2647,-8.71385 0.028,-6.02504 2.9534,-45.21187 4.0023,-53.61767 4.5909,-36.79139 12.3275,-66.77071 22.2598,-86.25629 8.9123,-17.4848 17.5939,-24.58712 28.7445,-23.51568 7.0162,0.67416 11.5041,4.50509 16.2283,13.85279 8.0542,15.93668 8.8006,38.42983 2.1602,65.10219 -4.4936,18.04943 -10.3502,31.70747 -19.8608,46.31699 -21.7537,33.41647 -50.0517,54.078 -93.0584,67.94571 -43.194,13.92811 -66.865,26.59158 -87.4986,46.80987 -19.1637,18.7779 -31.5972,40.12218 -38.7631,66.54347 -2.3897,8.81077 -2.6294,11.35268 -2.6125,27.70095 0.017,16.66298 0.2184,18.65278 2.7079,26.78832 9.4866,31.00239 28.438,46.42596 49.3971,40.20179 z m -94.538,-85.40915 c 20.6131,-5.27192 40.2563,-20.23909 48.5266,-36.97487 2.4461,-4.94979 2.7146,-6.72 3.2619,-21.5 0.7339,-19.81978 2.1286,-23.7101 10.0448,-28.01864 4.2101,-2.29145 4.9833,-3.1626 4.9833,-5.61468 0,-1.88332 -0.7054,-3.27993 -2.0091,-3.97763 -2.654,-1.4204 -88.4779,-0.93805 -89.8294,0.50486 -2.1732,2.32011 -2.2611,5.40038 -0.2126,7.44885 1.7184,1.71841 3.3195,2.05115 9.8696,2.05115 4.3002,0 10.2627,0.72107 13.25,1.60238 13.5432,3.99546 20.0026,19.39761 17.0078,40.55491 -2.0579,14.53889 -7.3997,22.35453 -18.867,27.60444 -4.8254,2.20914 -6.3813,2.42029 -15.0456,2.04178 -7.5689,-0.33065 -10.6391,-0.92425 -14.1637,-2.73841 -18.8005,-9.67702 -30.4626,-28.66776 -36.5785,-59.5651 -1.3128,-6.63264 -1.7959,-13.99776 -1.8364,-28 -0.047,-16.36737 0.2682,-20.45487 2.2775,-29.5 5.7884,-26.05789 18.256,-45.00902 35.0512,-53.27896 6.1689,-3.03758 7.1692,-3.22104 17.5638,-3.22104 9.2978,0 11.7803,0.34974 15.8662,2.23525 6.3916,2.94953 15.1923,11.93151 16.5771,16.91855 2.4334,8.76366 0.4115,17.11147 -4.873,20.11886 -4.115,2.34181 -4.0494,6.01707 0.1935,10.84952 4.3878,4.99742 9.8862,7.3339 17.2586,7.3339 25.9128,0 31.6342,-32.80325 9.324,-53.45858 -14.2947,-13.23433 -31.2712,-19.4975 -52.8485,-19.4975 -16.7596,0 -24.8317,1.56288 -36.7031,7.1063 -23.1043,10.78865 -37.6399,24.90054 -48.8169,47.3937 -7.6663,15.42812 -10.5172,27.05959 -11.1521,45.5 -1.1785,34.22973 8.443,60.02083 30.6039,82.03636 12.9647,12.87969 27.207,20.87904 43.5927,24.48444 9.4118,2.07091 28.749,1.8452 37.6834,-0.43984 z m 209.0831,86.93055 c -17.9009,-9.04919 -28.6272,-34.67771 -35.7891,-85.51151 -3.6338,-25.79192 -4.7631,-41.62926 -4.8752,-68.36954 l -0.1022,-24.36953 15.5,-5.69365 c 8.525,-3.1315 18.5689,-7.12771 22.3198,-8.88046 3.7509,-1.75275 6.9604,-3.18682 7.1322,-3.18682 0.1719,0 0.6222,11.3625 1.0008,25.25 1.2933,47.44483 4.7093,82.89081 10.0025,103.79101 5.7286,22.61907 11.2373,31.24261 17.9918,28.16504 3.3841,-1.54188 5.5321,-5.16243 7.699,-12.97691 2.2324,-8.05091 4.4208,-10.62695 8.2179,-9.67393 4.1491,1.04136 4.9784,3.69736 4.3348,13.88264 -1.2894,20.40702 -11.2898,39.16145 -25.129,47.12604 -4.1248,2.37386 -6.3302,2.89958 -13.5,3.21807 -8.0087,0.35577 -8.9779,0.17439 -14.8033,-2.77045 z m 27.0175,-4.24356 c 11.3959,-6.07392 19.83,-21.39261 22.6182,-41.08082 1.0526,-7.43327 0.2552,-12.03275 -2.1671,-12.49948 -1.1793,-0.22723 -1.8094,0.72647 -2.3122,3.5 -2.2174,12.23194 -7.4839,19.31235 -14.3648,19.31235 -11.0819,0 -18.18,-17.44522 -24.0061,-59 -3.1386,-22.38656 -4.095,-36.04033 -4.7491,-67.7993 -0.4269,-20.72527 -0.9253,-29.15928 -1.7032,-28.82082 -10.4691,4.55528 -19.0713,8.00545 -27.8497,11.16987 l -10.75,3.87516 0.01,5.53754 c 0.01,3.04565 0.4593,15.43755 1.0091,27.53755 2.5913,57.03036 10.2972,99.42681 22.0948,121.56143 10.2505,19.23187 25.843,25.40906 42.1706,16.70652 z m -155.5764,-219.52015 c -0.4067,-45.45176 -0.7616,-55.89962 -2.0904,-61.5313 -2.063,-8.74369 -4.0851,-12.56371 -7.2972,-13.78493 -3.0521,-1.16044 -5.5645,-0.49964 -10.3021,2.70962 -5.9635,4.03971 -12.0179,2.19499 -12.0179,-3.66176 0,-6.22191 16.3405,-27.22684 30.7924,-39.58204 18.511,-15.82552 39.6569,-26.39739 52.8002,-26.39739 4.4601,0 5.5704,0.39173 7.2836,2.5697 2.288,2.90873 1.9021,4.77943 -2.2983,11.14279 -8.1326,12.3203 -10.5763,37.83347 -10.5773,110.42871 l -6e-4,42.64119 -11.75,6.6181 c -6.4625,3.63995 -15.575,9.54918 -20.25,13.13161 -4.675,3.58243 -9.6931,7.40226 -11.1513,8.48851 l -2.6512,1.97499 z m 18.8207,36.94407 c 5.9139,-4.01947 13.7971,-8.84135 17.5182,-10.7153 l 6.7658,-3.40718 0.4537,-58.78469 c 0.3756,-48.66845 0.7418,-60.53867 2.1278,-68.97685 2.0208,-12.30245 4.5625,-20.00633 8.7579,-26.54415 2.8934,-4.50907 3.0146,-5.02596 1.5274,-6.51316 -1.3826,-1.38262 -2.4497,-1.46023 -7.4056,-0.5386 -24.5042,4.55703 -57.3229,29.21068 -73.1703,54.966 -5.1641,8.3927 -3.7392,12.42081 2.7926,7.8943 8.8189,-6.11151 15.6014,-4.93724 19.7984,3.42776 4.5301,9.02855 5.3704,18.91272 6.0163,70.76849 0.5673,45.54151 0.6991,48.19682 2.3333,47 0.9527,-0.69767 6.5707,-4.55715 12.4845,-8.57662 z m -456.4572,-205.94342 c -7.1265,-3.63391 -9.9979,-12.39582 -6.3078,-19.24845 2.0456,-3.7989 8.9484,-8 13.1448,-8 h 2.4842 l -3.1348,3.25 c -3.6784,3.81354 -5.2575,7.53214 -5.2575,12.38084 0,4.06413 1.2314,6.78305 4.8093,10.61916 l 2.5649,2.75 -2.4371,-0.002 c -1.3404,-8.6e-4 -3.9801,-0.78836 -5.866,-1.75 z m 680.0567,-0.86586 c 3.7826,-4.14926 4.8722,-6.70237 4.8722,-11.41572 0,-5.01434 -2.3474,-10.30841 -5.7617,-12.99407 -2.1748,-1.71074 -2.2576,-1.97206 -0.6231,-1.96722 4.4266,0.0131 9.4152,2.265 12.3025,5.55351 2.6445,3.01188 3.0823,4.29227 3.0823,9.01443 0,4.97948 -0.3576,5.88729 -3.7529,9.52721 -2.9894,3.20478 -4.6678,4.13937 -8.25,4.59387 l -4.4971,0.57059 z m -683.1278,-39.35054 c -12.998,-2.81033 -20.9932,-12.73642 -20.9683,-26.03205 0.026,-13.74823 8.9611,-24.17239 22.6814,-26.46067 5.2114,-0.86915 14.0795,1.51806 17.924,4.82494 l 2.7075,2.32885 -5.6113,-0.46533 c -10.8476,-0.89957 -19.4871,6.15403 -20.5043,16.74061 -0.7622,7.93224 0.4274,11.74065 5.139,16.45225 5.1344,5.13434 11.3234,7.09604 17.8624,5.66167 l 4.2696,-0.93658 -3.2853,2.77941 c -4.8887,4.13593 -14.0274,6.44468 -20.2147,5.1069 z m 677.5,-1.91278 c -2.2,-1.01025 -4.8048,-2.74248 -5.7886,-3.8494 -1.7691,-1.99079 -1.7475,-2.00182 2,-1.01836 8.6489,2.26973 19.5088,-4.82293 22.2219,-14.51332 3.6481,-13.02963 -7.0958,-25.8269 -20.5196,-24.44144 -2.9775,0.30731 -5.4137,0.37536 -5.4137,0.15123 0,-1.17929 11.0691,-6.48575 14.6487,-7.02255 10.1535,-1.5226 21.4243,4.91476 26.4387,15.10056 2.7632,5.61282 3.0982,7.17194 2.7262,12.68663 -0.7091,10.5094 -5.9815,18.29579 -15.3802,22.7137 -5.6941,2.67652 -15.3315,2.76535 -20.9334,0.19295 z m -631.5485,-21.21 c -2.1577,-4.03161 2.3476,-9.90927 7.5956,-9.90927 2.0009,0 1.8408,0.52123 -1.0471,3.40909 -1.5721,1.57214 -2.5,3.6303 -2.5,5.54546 0,3.5948 -2.3403,4.14668 -4.0485,0.95472 z m 597.0485,-0.37447 c 0,-1.35587 -1.3966,-4.05587 -3.1036,-6 l -3.1036,-3.5348 h 2.4688 c 5.6361,0 10.0491,7.28928 6.5384,10.8 -1.8578,1.85781 -2.8,1.43207 -2.8,-1.2652 z"
       id="path6072-8" /><text
       xml:space="preserve"
       style="font-size:266.667px;font-family:'Palatino Linotype';-inkscape-font-specification:'Palatino Linotype';white-space:pre;inline-size:106.823;fill:#000000;fill-opacity:1;stroke:#ffffff"
       x="998.75513"
       y="-295.58746"
       id="text10706"><tspan
         x="998.75513"
         y="-295.58746"
         id="tspan318"><tspan
           style="font-family:Sylfaen;-inkscape-font-specification:Sylfaen"
           id="tspan316">g</tspan></tspan></text></g></svg>
