<?xml version="1.0" encoding="UTF-8" standalone="no"?>
<!-- Created with Inkscape (http://www.inkscape.org/) -->

<svg
   version="1.1"
   id="svg2"
   width="1022"
   height="761"
   viewBox="0 0 1022 761"
   sodipodi:docname="egh logotipo dorado minimalista.svg"
   inkscape:version="1.2.2 (732a01da63, 2022-12-09)"
   xml:space="preserve"
   xmlns:inkscape="http://www.inkscape.org/namespaces/inkscape"
   xmlns:sodipodi="http://sodipodi.sourceforge.net/DTD/sodipodi-0.dtd"
   xmlns="http://www.w3.org/2000/svg"
   xmlns:svg="http://www.w3.org/2000/svg"><defs
     id="defs6" /><sodipodi:namedview
     id="namedview4"
     pagecolor="#ffffff"
     bordercolor="#000000"
     borderopacity="0.25"
     inkscape:showpageshadow="2"
     inkscape:pageopacity="0.0"
     inkscape:pagecheckerboard="0"
     inkscape:deskcolor="#d1d1d1"
     showgrid="false"
     inkscape:zoom="0.38514554"
     inkscape:cx="464.75937"
     inkscape:cy="436.19874"
     inkscape:window-width="1920"
     inkscape:window-height="1009"
     inkscape:window-x="1358"
     inkscape:window-y="-8"
     inkscape:window-maximized="1"
     inkscape:current-layer="g8" /><g
     inkscape:groupmode="layer"
     inkscape:label="Image"
     id="g8"><path
       id="path15313"
       style="fill:#b89a4b;fill-opacity:1;fill-rule:nonzero;stroke:#000000;stroke-width:1.29821;stroke-opacity:1"
       class="UnoptimicedTransforms"
       d="m 234.28111,145.8458 c -21.74955,0 -34.41079,5.30285 -41.8837,17.53793 -2.55282,4.17961 -2.75675,5.30342 -2.67043,14.81724 0.0825,9.09537 0.46479,11.20795 3.29024,18.14869 1.75876,4.32042 7.60233,15.12888 12.98389,24.01891 22.43154,37.0558 27.65249,50.15613 33.98912,85.28101 1.70232,9.43609 4.25861,21.34717 5.68096,26.46963 8.03096,28.92276 29.47726,52.39732 57.78956,63.25714 3.52165,1.35079 6.34007,2.93926 6.72538,3.72585 0.13859,-0.0939 0.26849,-0.19846 0.40248,-0.29677 0.23013,-0.23754 0.46182,-0.47192 0.69829,-0.70649 0.58621,-0.54684 1.21253,-1.06236 1.81316,-1.59871 -0.93279,1.1349 -3.9598,3.65422 -7.69535,6.32399 -10.70093,7.64785 -28.69984,26.50515 -36.42612,38.16413 -30.47542,45.98748 -31.55589,99.76318 -2.8113,139.96065 13.82068,19.32732 35.53027,33.56152 59.5665,39.05443 5.36018,1.22492 13.55125,1.65635 25.43248,1.34023 14.77061,-0.393 19.15878,-1.01371 27.91173,-3.94986 15.7563,-5.28539 28.40899,-13.02947 39.54129,-24.19697 17.17551,-17.22982 24.44442,-33.08219 25.65988,-55.96052 0.58707,-11.05038 -0.0306,-19.36261 -2.13916,-27.1474 10.86003,26.30138 27.0666,47.06727 44.33075,55.04724 8.66321,4.0044 27.64797,4.3196 36.52473,0.60694 14.51152,-6.06942 30.20103,-24.06277 37.67178,-43.02726 -0.22212,3.622 -0.33405,7.75405 -0.33405,13.86951 0,19.98333 1.73677,29.21138 8.03946,42.68454 5.48871,11.73314 15.85413,21.81142 24.97366,24.28313 9.42756,2.55522 21.3988,-3.08227 27.06653,-12.74754 8.38947,-14.30673 10.8402,-29.89151 11.78853,-75.00334 0.4205,-19.99469 0.6114,-42.93442 0.42461,-50.97868 l -0.34009,-14.62769 -7.37135,5.41454 c -4.05414,2.97742 -11.51555,9.69548 -16.58002,14.9283 l -9.20664,9.51374 -0.76269,26.9636 c -1.50319,53.17955 -5.47889,70.45803 -16.20773,70.45803 -5.10787,0 -9.33845,-4.30166 -11.82877,-12.02573 -3.15489,-9.78522 -3.1438,-41.37893 0.0181,-51.59328 2.72759,-8.81132 10.56991,-25.83701 15.39874,-33.42735 5.67038,-8.91312 17.2736,-21.72893 26.01205,-28.73271 15.12056,-12.11897 27.02106,-18.07664 63.8267,-31.94735 36.40081,-13.71815 52.80458,-23.91412 72.03522,-44.77531 21.32975,-23.1383 35.00942,-49.11183 42.76109,-81.18947 2.00059,-8.27871 2.83469,-13.89742 3.3305,-24.33291 4.78453,-14.59263 11.07922,-26.3722 22.88077,-45.70199 5.14609,-8.42876 10.91383,-18.56517 12.81485,-22.5255 13.54083,-28.20838 4.36899,-49.16963 -23.82257,-54.44606 -2.04257,-0.3823 -5.05456,-0.61815 -8.6291,-0.72181 -2.68088,-0.0778 -5.67724,-0.0806 -8.82026,-0.0153 -9.42904,0.1958 -20.16824,1.00828 -27.58976,2.28031 -50.88647,8.72215 -113.80921,40.24551 -161.4413,80.87739 -18.59828,15.86509 -31.90869,29.78282 -50.8388,53.16709 -6.43535,7.94961 -9.58273,11.48858 -11.59132,12.80498 -7.4798,-5.60756 -14.25247,-6.9936 -28.58588,-6.9941 -10.85601,-3.9e-4 -16.72067,0.66999 -22.90291,4.07048 -0.59492,-0.63648 -1.18227,-1.24919 -1.84334,-2.07162 -25.61594,-31.8691 -50.62557,-57.19714 -72.67717,-73.60566 C 350.97653,172.15473 285.36606,145.8458 234.28111,145.8458 Z m -4.94442,4.94738 c 2.84342,0.0299 6.3911,0.11964 10.98156,0.24699 20.80387,0.57714 26.32498,1.44145 48.04763,7.53211 50.13373,14.05667 105.83344,46.00231 146.09286,83.79145 14.21076,13.33872 23.42846,23.42711 39.24547,42.93918 2.82733,3.48784 5.54828,6.67616 7.82414,9.24571 -3.16621,2.21691 -6.61426,5.10549 -11.02986,9.10019 -20.73851,18.76167 -37.19486,57.90108 -41.15924,97.89453 -1.71992,17.3508 -0.7943,55.31328 1.70448,69.90662 1.6278,9.50656 4.03413,18.75844 7.0051,27.57627 -0.0406,-0.0862 -0.0717,-0.17019 -0.11269,-0.25656 -4.72306,-9.95236 -16.23215,-22.00467 -24.81669,-25.98714 -18.21991,-8.45244 -41.18072,-2.1395 -51.66991,14.20648 -3.53119,5.50287 -4.29707,8.109 -4.83374,16.47148 l -0.63793,9.93497 4.96455,-4.35768 c 6.88473,-6.04488 12.11788,-7.92844 22.02954,-7.92844 10.40344,0 15.72112,2.08944 22.45617,8.82448 13.14358,13.1436 14.85363,40.57916 3.83761,61.56845 -4.91731,9.36915 -15.642,19.58885 -25.31576,24.1223 -6.81049,3.19163 -8.84114,3.49992 -23.04781,3.49992 -15.34101,0 -15.73508,-0.0753 -25.83898,-4.89951 -14.45783,-6.90303 -25.71891,-18.53898 -33.76776,-34.88821 -9.68127,-19.6651 -11.65189,-28.98744 -11.61949,-54.98215 0.0246,-19.77645 0.38848,-23.41774 3.50154,-35.05095 4.67631,-17.47496 15.42387,-38.90432 26.26359,-52.36295 4.79284,-5.95081 9.46009,-11.10533 10.37182,-11.45518 0.91172,-0.34987 7.26429,1.15935 14.11685,3.35442 20.33331,6.51333 32.28408,5.27073 40.62194,-4.22557 5.71482,-6.50883 6.6715,-12.63255 3.11718,-19.94843 -2.19796,-4.52405 -4.08931,-6.32743 -8.83838,-8.42816 -8.76112,-3.87546 -18.49472,-2.77655 -34.77798,3.9288 l -12.9537,5.33605 -4.34473,-4.18727 c -20.23448,-19.49441 -33.30914,-51.51052 -34.84238,-85.32314 -0.88824,-19.58844 1.17326,-31.18879 8.01331,-45.08548 9.19984,-18.69102 23.60814,-28.86993 42.4049,-29.95806 23.98068,-1.38822 42.00816,11.11835 47.37549,32.86828 3.95341,16.02028 -1.32046,30.45995 -13.07444,35.79766 -6.56508,2.98133 -13.92117,3.14956 -19.16391,0.43845 l -3.95433,-2.04673 0.93173,4.31747 c 3.44703,15.96367 16.36934,25.34377 33.33913,24.19888 4.49361,-0.30317 10.48757,-1.66792 13.31995,-3.03276 7.02392,-3.38462 14.68242,-11.33187 17.92831,-18.60245 3.82986,-8.5786 4.56423,-25.07967 1.60185,-36.02358 -6.26869,-23.15841 -29.59144,-43.30552 -57.04095,-49.27466 -13.279,-2.88764 -35.46231,-1.99744 -46.51017,1.86675 -28.92907,10.11849 -47.971,29.27622 -58.22021,58.57206 -2.50627,7.16382 -2.96587,11.18348 -3.03467,26.61323 -0.0695,15.5882 0.3523,19.5538 2.96222,27.86538 7.51846,23.94332 21.31191,43.00328 45.31682,62.6234 2.43613,1.99114 4.58059,3.86932 6.2565,5.41837 -0.11185,-0.0405 -0.16626,-0.0719 -0.28173,-0.11296 -5.74217,-2.03955 -12.27445,-4.594 -14.51531,-5.67876 -16.62685,-8.04922 -31.54801,-23.18373 -39.79686,-40.36786 -4.56626,-9.51254 -7.02473,-18.42691 -10.69782,-38.77871 -6.73848,-37.33627 -11.37307,-49.47349 -32.0009,-83.82208 -16.07999,-26.77569 -18.86999,-33.65402 -18.83186,-46.42763 0.0392,-13.11191 5.8257,-20.47154 19.39734,-24.67179 4.98063,-1.54145 7.17032,-1.98515 15.70061,-1.89548 z m 579.59207,0.44419 6.42955,2.85853 c 13.67444,6.07703 18.18826,17.2925 13.93977,34.63548 -2.09196,8.54001 -5.83936,16.02349 -16.82552,33.58627 -8.25299,13.19342 -13.90233,23.30986 -18.36097,33.69732 0.56784,-31.28836 -3.34961,-46.22429 -15.56376,-59.43364 -11.8579,-12.82405 -27.39628,-14.78325 -44.48973,-5.60793 -31.62984,16.97805 -47.98816,63.91464 -53.62595,153.8742 -1.22681,19.57562 -1.64465,39.17122 -0.83514,39.17122 3.65848,0 30.93058,-13.18652 32.83805,-15.87794 0.64309,-0.90741 1.82244,-12.45854 2.62213,-25.66932 3.63584,-60.06299 14.17218,-105.65911 29.76111,-128.79267 11.31767,-16.79512 28.06743,-15.95229 36.52875,1.83803 6.21804,13.07377 7.62938,37.45584 3.45124,59.62893 -6.1944,32.87308 -19.54203,58.83271 -42.50955,82.67905 -16.87104,17.51659 -34.69047,28.38742 -64.90333,39.59626 -43.6653,16.19969 -64.0286,28.65947 -83.28041,50.95379 -13.50377,15.63787 -22.692,32.1684 -28.79919,51.76559 0.18124,-3.20359 0.3496,-6.85178 0.54938,-11.77109 1.09997,-27.08548 2.51439,-33.6485 8.65928,-40.1783 2.48681,-2.64258 4.51298,-5.29859 4.50371,-5.90278 -0.0847,-5.48358 -1.9312,-5.72853 -39.2012,-5.19436 -31.76123,0.45525 -37.50893,0.93481 -38.38215,3.20507 -1.76535,4.58974 1.18251,6.81093 11.39813,8.58708 17.80207,3.09517 23.51556,14.19639 23.52072,45.70581 0.005,27.93369 -4.11422,41.59918 -15.45912,51.29842 -3.64773,3.11861 -6.17779,3.78832 -13.45478,3.56311 -10.32312,-0.31949 -14.33204,-2.59297 -22.16236,-12.57331 -9.72732,-12.39818 -16.84701,-33.08983 -21.84843,-63.5003 -2.02873,-12.33538 -2.36754,-19.34575 -2.36857,-49.10043 -0.002,-32.90529 0.15827,-35.54238 3.06888,-50.6666 5.84018,-30.34702 14.74334,-51.14012 26.73046,-62.42045 4.57888,-4.30889 6.95169,-5.22891 15.08079,-5.85299 11.20782,-0.86045 15.48404,0.94805 22.45617,9.49651 10.67134,13.08398 12.74869,35.51714 4.32259,46.68227 -2.87608,3.81099 -2.93633,4.21556 -1.32213,8.86087 0.93024,2.67699 3.42382,6.7589 5.5421,9.06955 3.24971,3.54474 4.91383,4.09541 10.64751,3.52865 8.55035,-0.84519 13.75406,-6.60894 16.53775,-18.31335 5.06625,-21.30163 -3.36209,-46.96636 -20.99719,-63.93874 -0.92165,-0.88702 -1.77035,-1.63406 -2.63219,-2.40476 1.64279,-1.56883 6.88308,-7.72038 12.10045,-14.23903 31.58826,-39.46637 62.73976,-66.48556 105.29384,-91.32165 31.73975,-18.52437 63.69691,-31.40297 96.03488,-38.70022 11.32072,-2.55462 13.8036,-2.76045 33.61482,-2.7896 z m -397.23005,14.97042 c -0.023,0.01 -0.0948,0.0209 -0.0704,0.0268 0.14141,0.032 0.27045,0.0347 0.39442,0.0211 -0.10868,-0.0144 -0.21414,-0.0454 -0.32399,-0.0479 z m 232.68967,77.88675 c -1.2771,-0.0633 -3.25013,0.31912 -6.02507,0.99943 -12.79188,3.13613 -30.72115,15.04227 -44.96264,29.85851 -12.0978,12.58607 -24.1754,31.16427 -20.26066,31.16427 0.3524,0 2.82365,-1.22089 5.4938,-2.7111 8.73505,-4.87509 14.95657,-1.374 18.65478,10.49978 2.15891,6.93156 3.63668,32.64337 3.66656,63.75111 0.0148,15.42412 0.36888,32.44781 0.78483,37.83098 l 0.75464,9.78754 11.41021,-8.16777 c 6.27487,-4.49237 13.40521,-9.20642 15.84549,-10.47489 3.38237,-1.75812 4.57578,-3.25437 5.0229,-6.29336 0.32259,-2.19254 0.76524,-30.2779 0.98406,-62.41279 0.43796,-64.31637 0.95769,-69.77885 8.13002,-85.39589 2.75716,-6.00347 3.31071,-8.29664 0.50108,-8.43582 z m -273.4404,140.86627 c 2.91059,0.0554 5.27889,0.62161 6.62879,1.74039 2.60678,2.16048 2.79859,7.86872 0.37631,11.18139 -1.31227,1.79463 -3.75746,2.52434 -9.41191,2.81066 -4.20153,0.21276 -8.51394,0.0729 -9.58497,-0.31208 -1.07102,-0.38498 -4.43137,-1.58705 -7.46594,-2.6709 -3.03456,-1.08387 -5.51795,-2.7195 -5.51795,-3.63395 0,-0.91446 3.65133,-3.31068 8.11392,-5.32647 5.65346,-2.55369 12.01077,-3.8813 16.86175,-3.78904 z m 338.4021,26.10585 -14.67429,6.08275 c -8.07083,3.34528 -15.63849,6.35354 -16.81546,6.68394 -1.87203,0.52552 -2.13781,2.32846 -2.12709,14.40177 0.007,7.59088 0.55644,22.1071 1.22152,32.25753 4.48505,68.45145 15.4331,108.28788 32.94067,119.8648 14.82514,9.80315 33.8652,-0.0892 41.6724,-21.65053 3.16271,-8.73451 5.55512,-23.24812 4.35077,-26.39878 -0.73506,-1.92295 -1.43531,-0.78177 -3.26006,5.32073 -5.40506,18.07606 -18.1832,20.21141 -25.86514,4.32129 -8.41004,-17.39612 -15.37636,-67.01179 -15.72676,-112.00528 -0.0682,-8.75036 -0.48376,-18.82717 -0.92167,-22.3934 z"
       transform="matrix(1.3557918,0,0,1.3466729,-181.38874,-143.48672)"
       inkscape:export-filename="path15313.png"
       inkscape:export-xdpi="96"
       inkscape:export-ydpi="96" /><path
       style="fill:#a0892c;fill-opacity:1;fill-rule:nonzero;stroke:#967a35;stroke-width:0.917973;stroke-opacity:1"
       d=""
       id="path12032" /><path
       style="fill:#a0892c;fill-opacity:1;fill-rule:nonzero;stroke:#967a35;stroke-width:0.917973;stroke-opacity:1"
       d=""
       id="path12034" /><path
       style="fill:#a0892c;fill-opacity:1;fill-rule:nonzero;stroke:#967a35;stroke-width:0.458987;stroke-opacity:1"
       d=""
       id="path12042" /><path
       style="fill:#ffffff;fill-opacity:1;fill-rule:nonzero;stroke:#967a35;stroke-width:1.29821;stroke-opacity:1"
       d=""
       id="path15191" /><path
       style="fill:#ffffff;fill-opacity:1;fill-rule:nonzero;stroke:#967a35;stroke-width:0.649105;stroke-opacity:1"
       d=""
       id="path15201" /><text
       xml:space="preserve"
       style="font-size:266.667px;font-family:'Palatino Linotype';-inkscape-font-specification:'Palatino Linotype';white-space:pre;inline-size:106.823;fill:#000000;fill-opacity:1;stroke:#ffffff"
       x="998.75513"
       y="-295.58746"
       id="text10706"><tspan
         x="998.75513"
         y="-295.58746"
         id="tspan1228"><tspan
           style="font-family:Sylfaen;-inkscape-font-specification:Sylfaen"
           id="tspan1226">g</tspan></tspan></text></g></svg>
